<svg width="442" height="257" viewBox="0 0 442 257" fill="none" xmlns="http://www.w3.org/2000/svg">
<path d="M221 257C261.869 257 295 248.27 295 237.5C295 226.73 261.869 218 221 218C180.131 218 147 226.73 147 237.5C147 248.27 180.131 257 221 257Z" fill="#FFDE05" fill-opacity="0.1"/>
<path d="M137.724 55.3791L135.146 53.3292L136.169 52.0404C139.413 47.9574 138.246 45.952 136.896 43.63C136.507 42.9634 136.108 42.2801 135.841 41.5524C135.13 39.6359 135.219 37.7194 136.102 36.0195C138.213 31.9587 144.068 30.3144 144.729 30.1422L146.318 29.7256L147.157 32.9087L145.568 33.3253C144.157 33.703 140.241 35.1918 139.018 37.5416C138.563 38.4193 138.535 39.3526 138.924 40.4025C139.096 40.8636 139.407 41.4024 139.741 41.969C141.19 44.4633 143.385 48.2407 138.741 54.0792L137.724 55.3791Z" fill="#FF5822"/>
<path d="M21.5879 117.491L19.4492 113.452L21.4657 112.385C23.2489 111.435 28.0818 108.186 28.9873 104.619C29.3262 103.292 29.0707 102.014 28.2096 100.72C27.8319 100.153 27.2375 99.5253 26.6097 98.8587C23.86 95.9423 19.6992 91.5315 24.1377 82.1656L25.1154 80.0991L29.2484 82.0545L28.2707 84.121C25.171 90.6649 27.3819 93.0092 29.9372 95.7201C30.6705 96.4978 31.426 97.2977 32.0204 98.1977C33.587 100.564 34.0703 103.181 33.4148 105.758C31.8427 111.913 24.4433 115.985 23.6044 116.43L21.5879 117.491Z" fill="#4D68F7"/>
<path d="M255.321 51.0066L251.843 48.0402L253.326 46.3014C253.354 46.2681 256.437 42.5684 256.054 39.0242C255.893 37.5299 255.115 36.2633 253.671 35.1523C253.01 35.0468 251.104 36.5633 250.077 37.3744C247.238 39.602 242.955 42.9684 238.783 39.7242C237.328 38.5909 236.933 37.2688 236.855 36.3633C236.617 33.5747 238.894 31.086 241.3 28.4529C242.972 26.6197 245.505 23.8532 244.749 22.8978C243.816 21.7201 242.533 21.9201 238.889 23.1755C235.828 24.231 232.017 25.542 228.656 23.4088C222.023 19.1869 227.19 7.27125 227.801 5.92691L228.745 3.84375L232.906 5.73249L231.961 7.8101C230.612 10.7987 228.517 17.9037 231.106 19.548C232.6 20.498 234.928 19.698 237.394 18.8536C240.705 17.7148 245.238 16.1539 248.332 20.0647C251.493 24.0643 247.549 28.3806 244.666 31.5359C243.516 32.797 241.377 35.1357 241.4 35.9634C241.411 35.9634 241.461 36.0245 241.583 36.1189C242.749 37.0244 244.205 36.1689 247.249 33.7802C249.782 31.7915 253.249 29.0695 256.454 31.5304C258.915 33.4247 260.309 35.7856 260.598 38.5632C261.176 44.0683 256.976 49.0567 256.798 49.2678L255.321 51.0066Z" fill="#0F33FD"/>
<path d="M350.316 74.5771L352.466 71.0163L354.244 72.0885C354.277 72.1107 358.055 74.3272 361.177 73.4606C362.493 73.0939 363.515 72.2107 364.299 70.7497C364.299 70.1608 362.654 68.6554 361.771 67.8499C359.355 65.6334 355.699 62.2893 357.994 58.0618C358.793 56.5897 359.921 56.0398 360.727 55.8342C363.193 55.212 365.765 56.8841 368.482 58.6507C370.376 59.8783 373.231 61.7393 373.976 60.9282C374.898 59.9172 374.526 58.7951 372.859 55.7065C371.459 53.1122 369.715 49.8903 371.137 46.5628C373.942 39.9855 385.402 42.8575 386.702 43.2075L388.708 43.7463L387.624 47.7571L385.619 47.2183C382.736 46.4461 376.053 45.6239 374.959 48.1904C374.326 49.6792 375.387 51.6457 376.514 53.7288C378.025 56.5286 380.097 60.3672 377.048 63.7225C373.926 67.15 369.465 64.2447 366.215 62.1337C364.91 61.2893 362.493 59.7117 361.76 59.8617C361.76 59.8728 361.71 59.9228 361.643 60.045C361.004 61.2227 361.982 62.4059 364.576 64.7835C366.737 66.7611 369.698 69.472 367.959 72.7106C366.626 75.1993 364.71 76.7992 362.26 77.4714C357.405 78.8046 352.305 75.777 352.094 75.6437L350.316 74.5771Z" fill="#FFB925"/>
<path d="M435.191 57.1287L436.68 60.1673C436.813 60.4451 437.075 60.634 437.375 60.6784L440.696 61.1673C441.458 61.2784 441.758 62.2172 441.208 62.7616L438.802 65.1281C438.586 65.3447 438.486 65.6502 438.536 65.9558L439.102 69.2999C439.23 70.061 438.441 70.6443 437.758 70.2832L434.786 68.7055C434.519 68.5611 434.197 68.5611 433.925 68.7055L430.953 70.2832C430.275 70.6443 429.481 70.061 429.608 69.2999L430.175 65.9558C430.225 65.6558 430.125 65.3447 429.908 65.1281L427.503 62.7616C426.953 62.2227 427.259 61.2784 428.014 61.1673L431.342 60.6784C431.642 60.634 431.903 60.4451 432.036 60.1673L433.525 57.1287C433.869 56.4343 434.852 56.4343 435.191 57.1287Z" fill="#0F33FD"/>
<path d="M64.4282 32.7028L64.8615 36.0581C64.9004 36.3636 65.0837 36.6247 65.3559 36.7636L68.3501 38.2912C69.0334 38.6412 69.0167 39.63 68.3279 39.9633L65.2892 41.4354C65.0115 41.5687 64.8226 41.8298 64.7726 42.1354L64.2393 45.4851C64.1171 46.2517 63.1783 46.5461 62.6561 45.9906L60.3452 43.5408C60.1341 43.3186 59.8286 43.2186 59.5286 43.263L56.2067 43.8074C55.4512 43.9297 54.8845 43.1242 55.2512 42.4464L56.8566 39.4634C57.001 39.1912 57.0066 38.869 56.8677 38.5968L55.3456 35.5859C55.0012 34.8971 55.5845 34.1027 56.34 34.2416L59.6453 34.8415C59.9452 34.8971 60.2508 34.7971 60.4674 34.5804L62.8506 32.1751C63.4005 31.6251 64.3282 31.9417 64.4282 32.7028Z" fill="#FFB925"/>
<path d="M275.102 13.0266C275.102 15.082 273.436 16.7485 271.38 16.7485C269.325 16.7485 267.658 15.082 267.658 13.0266C267.658 10.9712 269.325 9.30469 271.38 9.30469C273.436 9.30469 275.102 10.9712 275.102 13.0266Z" fill="#FFB925"/>
<path d="M4.57741 137.711C7.10544 137.711 9.15481 135.662 9.15481 133.134C9.15481 130.606 7.10544 128.556 4.57741 128.556C2.04938 128.556 0 130.606 0 133.134C0 135.662 2.04938 137.711 4.57741 137.711Z" fill="#FF5822"/>
<path d="M111.227 50.6458C111.227 53.1733 109.177 55.2232 106.65 55.2232C104.122 55.2232 102.072 53.1733 102.072 50.6458C102.072 48.1182 104.122 46.0684 106.65 46.0684C109.177 46.0684 111.227 48.1182 111.227 50.6458Z" fill="#BE0215"/>
<path d="M373.759 2.2887C373.759 3.55527 372.731 4.57741 371.47 4.57741C370.204 4.57741 369.182 3.54971 369.182 2.2887C369.182 1.02214 370.209 0 371.47 0C372.737 0 373.759 1.02769 373.759 2.2887Z" fill="#0F33FD"/>
<path d="M157.156 61.8897C157.156 62.8729 156.356 63.6728 155.373 63.6728C154.384 63.6728 153.59 62.8729 153.59 61.8897C153.59 60.9064 154.39 60.1065 155.373 60.1065C156.356 60.1009 157.156 60.9009 157.156 61.8897Z" fill="#FFB925"/>
<path d="M109.365 5.17739C110.015 9.69369 113.532 13.5878 117.915 14.7933C118.981 15.0877 119.437 13.4323 118.37 13.1379C114.509 12.0768 111.587 8.67155 111.021 4.72187C110.954 4.26079 110.371 4.01081 109.965 4.12192C109.471 4.25524 109.299 4.71631 109.365 5.17739Z" fill="#0F33FD"/>
<path d="M0.806231 156.843C6.41689 161.598 12.9108 165.198 19.9213 167.426C20.9768 167.759 21.4268 166.103 20.3769 165.77C13.6607 163.637 7.39458 160.187 2.0228 155.632C1.18398 154.915 -0.0381444 156.126 0.806231 156.843Z" fill="#0F33FD"/>
<path d="M331.428 6.29902C332.717 9.30988 333.472 12.5485 333.678 15.8094C333.745 16.9093 335.467 16.9148 335.395 15.8094C335.167 12.2208 334.322 8.7377 332.911 5.43242C332.728 5.00468 332.1 4.91024 331.734 5.12689C331.295 5.38242 331.245 5.87127 331.428 6.29902Z" fill="#0F33FD"/>
<path d="M391.629 113.585C395.39 116.852 399.573 119.596 404.078 121.724C405.072 122.19 405.945 120.713 404.945 120.24C400.573 118.174 396.495 115.535 392.84 112.369C392.012 111.652 390.796 112.863 391.629 113.585Z" fill="#0F33FD"/>
<path d="M30.1969 29.2201C28.6414 35.964 24.3973 41.9302 18.5089 45.5799C17.5701 46.1632 18.4312 47.6464 19.3755 47.0631C25.625 43.1912 30.1969 36.8473 31.8523 29.6756C32.1023 28.5979 30.4469 28.1424 30.1969 29.2201Z" fill="#FF5822"/>
<path fill-rule="evenodd" clip-rule="evenodd" d="M210.885 185.891H230.34V228.261C230.341 228.271 230.342 228.281 230.342 228.292C230.342 229.264 225.986 230.054 220.612 230.054C215.239 230.054 210.883 229.264 210.883 228.292C210.883 228.283 210.884 228.272 210.885 228.263V185.891Z" fill="#FFCC00"/>
<path fill-rule="evenodd" clip-rule="evenodd" d="M210.884 185.891H230.339V200.036C227.169 199.664 223.921 199.47 220.612 199.47C217.302 199.47 214.054 199.664 210.884 200.036V185.891Z" fill="#FFA000"/>
<path fill-rule="evenodd" clip-rule="evenodd" d="M298.547 157.18L296.419 159.016L294.793 160.174L293.111 161.255L291.376 162.255L289.59 163.172L287.755 164.004L285.875 164.749L283.951 165.401L281.987 165.962L279.985 166.426L277.949 166.792L275.879 167.057L273.78 167.218L271.654 167.271H253.671L255.799 165.435H273.781L275.908 165.381L278.008 165.221L280.076 164.956L282.113 164.59L284.115 164.126L286.079 163.565L288.003 162.913L289.883 162.168L291.717 161.336L293.505 160.418L295.24 159.418L296.922 158.338L298.547 157.18Z" fill="#FFA000"/>
<path fill-rule="evenodd" clip-rule="evenodd" d="M255.799 165.436L253.67 167.271V79.2126L255.799 77.3766V165.436Z" fill="#FFB600"/>
<path fill-rule="evenodd" clip-rule="evenodd" d="M266.762 88.3393L264.633 90.1753H296.041L296.353 90.1834L296.661 90.2066L296.965 90.2459L297.265 90.2992L297.559 90.3675L297.849 90.4508L298.131 90.5469L298.408 90.6569L298.678 90.7784L298.94 90.9139L299.195 91.0609L299.443 91.2206L299.682 91.3908L299.913 91.5714L300.134 91.7636L300.346 91.9661L300.548 92.178L300.74 92.4003L300.921 92.6306L301.092 92.8691L301.251 93.1168L301.398 93.3715L301.533 93.6354L301.656 93.9052L301.766 94.1818L301.862 94.4643L301.944 94.7525L302.013 95.0477L302.066 95.3464L302.105 95.6508L302.128 95.9588L302.137 96.2713V125.828L302.097 127.39L301.979 128.932L301.783 130.454L301.515 131.95L301.173 133.422L300.76 134.866L300.28 136.28L299.732 137.663L299.119 139.012L298.444 140.327L297.708 141.603L296.912 142.84L296.06 144.036L295.154 145.188L294.194 146.296L293.182 147.356L292.123 148.367L291.015 149.326L293.144 147.49L294.251 146.531L295.311 145.52L296.322 144.46L297.282 143.352L298.189 142.2L299.041 141.004L299.835 139.767L300.573 138.491L301.248 137.176L301.86 135.827L302.407 134.444L302.889 133.03L303.301 131.586L303.643 130.114L303.912 128.618L304.107 127.096L304.225 125.553L304.265 123.992V94.4353L304.257 94.1228L304.233 93.8149L304.195 93.5104L304.14 93.2106L304.072 92.9165L303.99 92.6283L303.894 92.3447L303.784 92.068L303.661 91.7983L303.527 91.5355L303.38 91.2808L303.22 91.0331L303.05 90.7935L302.868 90.5631L302.676 90.342L302.475 90.1302L302.263 89.9276L302.04 89.7354L301.81 89.5548L301.57 89.3847L301.324 89.2249L301.068 89.0779L300.805 88.9424L300.536 88.8197L300.259 88.7109L299.976 88.6148L299.688 88.5315L299.393 88.4632L299.093 88.4099L298.79 88.3706L298.481 88.3474L298.168 88.3393H266.762Z" fill="#FFA000"/>
<path fill-rule="evenodd" clip-rule="evenodd" d="M255.8 77.3766H298.169C307.572 77.3766 315.227 85.032 315.227 94.4353V123.99C315.227 146.807 296.599 165.436 273.782 165.436H255.8V77.3766ZM266.762 88.3393H298.169C301.522 88.3393 304.265 91.0828 304.265 94.4353V123.99C304.265 140.756 290.548 154.473 273.782 154.473H266.762V88.3393Z" fill="#FFDE05"/>
<path fill-rule="evenodd" clip-rule="evenodd" d="M142.678 157.18L144.807 159.016L146.432 160.174L148.114 161.255L149.85 162.255L151.636 163.172L153.471 164.004L155.351 164.749L157.275 165.401L159.239 165.962L161.241 166.426L163.277 166.792L165.347 167.057L167.446 167.218L169.572 167.271H187.555L185.427 165.435H167.444L165.318 165.381L163.218 165.221L161.149 164.956L159.112 164.59L157.11 164.126L155.147 163.565L153.223 162.913L151.342 162.168L149.508 161.336L147.721 160.418L145.986 159.418L144.304 158.338L142.678 157.18Z" fill="#FFA000"/>
<path fill-rule="evenodd" clip-rule="evenodd" d="M185.43 165.436L187.559 167.271V79.2126L185.43 77.3766V165.436Z" fill="#FFB600"/>
<path fill-rule="evenodd" clip-rule="evenodd" d="M174.465 88.3393L176.594 90.1753H145.187L144.874 90.1834L144.566 90.2066L144.262 90.2459L143.962 90.2992L143.668 90.3675L143.379 90.4508L143.096 90.5469L142.819 90.6569L142.55 90.7784L142.287 90.9139L142.032 91.0609L141.785 91.2206L141.545 91.3908L141.315 91.5714L141.093 91.7636L140.882 91.9661L140.679 92.178L140.487 92.4003L140.306 92.6306L140.135 92.8691L139.976 93.1168L139.829 93.3715L139.694 93.6354L139.571 93.9052L139.462 94.1818L139.366 94.4643L139.283 94.7525L139.215 95.0477L139.161 95.3464L139.122 95.6508L139.099 95.9588L139.091 96.2713V125.828L139.13 127.39L139.248 128.932L139.444 130.454L139.712 131.95L140.054 133.422L140.467 134.866L140.948 136.28L141.495 137.663L142.109 139.012L142.784 140.327L143.52 141.603L144.315 142.84L145.167 144.036L146.074 145.188L147.033 146.296L148.045 147.356L149.105 148.367L150.212 149.326L148.084 147.49L146.976 146.531L145.917 145.52L144.905 144.46L143.946 143.352L143.038 142.2L142.186 141.004L141.392 139.767L140.656 138.491L139.98 137.176L139.367 135.827L138.82 134.444L138.338 133.03L137.926 131.586L137.585 130.114L137.315 128.618L137.121 127.096L137.002 125.553L136.962 123.992V94.4353L136.97 94.1228L136.994 93.8149L137.033 93.5104L137.087 93.2106L137.155 92.9165L137.237 92.6283L137.334 92.3447L137.443 92.068L137.566 91.7983L137.7 91.5355L137.849 91.2808L138.007 91.0331L138.177 90.7935L138.359 90.5631L138.551 90.342L138.753 90.1302L138.966 89.9276L139.187 89.7354L139.417 89.5548L139.657 89.3847L139.903 89.2249L140.159 89.0779L140.422 88.9424L140.692 88.8197L140.968 88.7109L141.251 88.6148L141.54 88.5315L141.834 88.4632L142.134 88.4099L142.437 88.3706L142.747 88.3474L143.059 88.3393H174.465Z" fill="#FFA000"/>
<path fill-rule="evenodd" clip-rule="evenodd" d="M185.428 77.3766H143.059C133.655 77.3766 126 85.032 126 94.4353V123.99C126 146.807 144.628 165.436 167.445 165.436H185.428V77.3766ZM174.465 88.3393H143.059C139.706 88.3393 136.963 91.0828 136.963 94.4353V123.99C136.963 140.756 150.679 154.473 167.445 154.473H174.465V88.3393Z" fill="#FFDE05"/>
<path fill-rule="evenodd" clip-rule="evenodd" d="M169.612 65.5195C203.818 63.2436 239.472 63.7599 271.608 65.5195C272.467 65.5658 273.172 66.2233 273.172 67.0834V142.087C273.172 170.996 249.519 194.648 220.61 194.648C191.701 194.648 168.048 170.996 168.048 142.087V67.0834C168.048 66.2233 168.755 65.5762 169.612 65.5195Z" fill="#FFDE05"/>
<path fill-rule="evenodd" clip-rule="evenodd" d="M256.229 64.7885C261.43 64.9969 266.564 65.2435 271.611 65.519C272.409 65.6324 273.086 66.1522 273.167 66.9244V66.9255C273.169 66.951 273.172 66.9776 273.174 67.0031V67.0042L273.175 67.0436V67.083V142.086C273.175 170.995 249.523 194.648 220.613 194.648C220.192 194.648 219.773 194.642 219.355 194.632L219.217 194.629C218.823 194.619 218.43 194.603 218.038 194.584L217.836 194.574C217.449 194.553 217.062 194.529 216.676 194.5L216.489 194.486C216.102 194.455 215.716 194.42 215.331 194.382L215.15 194.363C214.756 194.321 214.363 194.278 213.973 194.228L213.873 194.214C213.472 194.162 213.073 194.106 212.676 194.045L212.622 194.037C212.224 193.975 211.827 193.909 211.431 193.839L211.292 193.814C210.914 193.745 210.538 193.672 210.162 193.596L209.969 193.556C209.601 193.48 209.233 193.399 208.866 193.314L208.684 193.273C208.315 193.186 207.947 193.096 207.581 193.002L207.413 192.958C207.038 192.859 206.665 192.759 206.294 192.652L206.198 192.624C205.823 192.517 205.449 192.406 205.077 192.29L205.009 192.269C204.637 192.152 204.268 192.031 203.899 191.907L203.745 191.855C203.388 191.733 203.035 191.607 202.682 191.478L202.511 191.416C202.163 191.287 201.818 191.154 201.475 191.019L201.284 190.944C200.94 190.806 200.597 190.666 200.257 190.522L200.111 190.459C199.757 190.308 199.404 190.154 199.054 189.995L198.975 189.96C198.635 189.803 198.296 189.645 197.959 189.483L197.845 189.428C197.512 189.267 197.182 189.101 196.852 188.933L196.667 188.838C196.35 188.675 196.034 188.507 195.719 188.337L195.516 188.225C195.203 188.054 194.892 187.881 194.583 187.702L194.4 187.597C194.085 187.415 193.773 187.229 193.462 187.04L193.313 186.949C192.989 186.751 192.667 186.55 192.349 186.345L192.296 186.312C191.986 186.112 191.679 185.908 191.372 185.702L191.237 185.612C190.938 185.408 190.642 185.202 190.348 184.993L190.169 184.866C189.88 184.66 189.594 184.45 189.31 184.239L189.126 184.102C188.845 183.89 188.565 183.675 188.287 183.457L188.104 183.313C187.824 183.091 187.546 182.867 187.271 182.64L187.141 182.532C186.862 182.301 186.584 182.066 186.309 181.828L186.228 181.758C185.956 181.521 185.686 181.281 185.417 181.039L185.273 180.908C185.011 180.67 184.754 180.429 184.497 180.186L184.322 180.02C184.071 179.779 183.822 179.536 183.575 179.29L183.404 179.118C183.159 178.872 182.916 178.623 182.674 178.372L182.513 178.2C182.267 177.942 182.024 177.682 181.783 177.418L181.668 177.289C181.433 177.029 181.199 176.767 180.968 176.502L180.89 176.412C188.889 183.292 199.272 187.466 210.573 187.466C235.661 187.466 256.229 166.9 256.229 141.811V64.7885ZM273.167 66.9255C273.169 66.951 273.172 66.9776 273.174 67.0031L273.167 66.9255Z" fill="#FFCC00"/>
<path fill-rule="evenodd" clip-rule="evenodd" d="M231.283 110.932L251.813 114.128C252.876 114.294 253.607 115.29 253.441 116.354C253.378 116.766 253.186 117.146 252.89 117.44L238.158 132.096L241.463 152.613C241.636 153.678 240.907 154.681 239.843 154.849C239.406 154.918 238.968 154.842 238.597 154.632L220.155 145.173L201.662 154.658C200.704 155.15 199.528 154.768 199.038 153.809C198.849 153.441 198.783 153.021 198.848 152.613L202.153 132.096L187.42 117.44C186.656 116.681 186.653 115.444 187.412 114.679C187.723 114.367 188.128 114.17 188.566 114.118L209.027 110.932L218.412 92.3915C218.899 91.4307 220.072 91.0441 221.035 91.5291C221.409 91.7166 221.71 92.0188 221.899 92.3915L231.283 110.932Z" fill="#FFA000"/>
<path fill-rule="evenodd" clip-rule="evenodd" d="M221.229 91.9804L230.787 110.863L251.697 114.12C252.352 114.221 252.801 114.834 252.701 115.489C252.659 115.752 252.536 115.982 252.36 116.156L237.355 131.084L240.723 151.982C240.826 152.637 240.38 153.252 239.725 153.356C239.446 153.4 239.175 153.345 238.947 153.216L220.155 143.579L201.32 153.238C200.731 153.54 200.007 153.306 199.706 152.716C199.586 152.481 199.551 152.225 199.589 151.982L202.954 131.084L187.949 116.157C187.478 115.69 187.477 114.929 187.945 114.458C188.146 114.255 188.403 114.14 188.667 114.111L209.523 110.863L219.082 91.9804C219.381 91.3877 220.104 91.1492 220.697 91.4491C220.936 91.5695 221.116 91.7581 221.229 91.9804Z" fill="#FFE74B"/>
<path fill-rule="evenodd" clip-rule="evenodd" d="M182.198 225.608H259.03C259.881 225.608 260.578 226.304 260.578 227.154V237.453C260.578 238.304 259.881 239 259.03 239H182.198C181.347 239 180.651 238.304 180.651 237.453V227.154C180.651 226.304 181.347 225.608 182.198 225.608Z" fill="#FFDE05"/>
<path fill-rule="evenodd" clip-rule="evenodd" d="M260.578 235.683V237.453C260.578 238.304 259.881 239 259.031 239H182.198C181.348 239 180.651 238.304 180.651 237.453V235.683H260.578Z" fill="#FFCC00"/>
</svg>
