<svg width="477" height="257" viewBox="0 0 477 257" fill="none" xmlns="http://www.w3.org/2000/svg">
<path d="M173.986 79.3461C173.786 79.3461 173.588 79.2485 173.467 79.07L161.246 60.9758C161.053 60.6901 161.127 60.302 161.415 60.1092C161.701 59.9163 162.089 59.9901 162.282 60.2782L174.503 78.3724C174.695 78.6581 174.622 79.0462 174.334 79.239C174.226 79.3104 174.105 79.3461 173.984 79.3461H173.986Z" fill="#CCE3FF"/>
<path d="M172.136 68.392C171.936 68.392 171.738 68.2944 171.617 68.1159L159.396 50.0217C159.203 49.736 159.277 49.3479 159.565 49.1551C159.851 48.9622 160.239 49.036 160.432 49.3241L172.653 67.4183C172.845 67.704 172.772 68.0921 172.484 68.2849C172.376 68.3563 172.255 68.392 172.134 68.392H172.136Z" fill="#CCE3FF"/>
<path d="M214.945 107.078C214.745 107.078 214.548 106.98 214.426 106.801L202.206 88.7072C202.013 88.4215 202.087 88.0335 202.375 87.8406C202.66 87.6478 203.049 87.7216 203.241 88.0097L215.462 106.104C215.655 106.39 215.581 106.778 215.293 106.97C215.186 107.042 215.064 107.078 214.943 107.078H214.945Z" fill="#CCE3FF"/>
<path d="M349.971 222.467C349.771 222.467 349.573 222.372 349.452 222.191L337.231 204.096C337.038 203.811 337.112 203.423 337.4 203.23C337.686 203.037 338.074 203.111 338.267 203.399L350.487 221.493C350.68 221.779 350.607 222.167 350.318 222.36C350.211 222.431 350.09 222.467 349.968 222.467H349.971Z" fill="#CCE3FF"/>
<path d="M347.447 200.399C347.25 200.399 347.054 200.303 346.933 200.13L325.701 169.415C325.506 169.131 325.575 168.741 325.86 168.546C326.144 168.348 326.534 168.42 326.729 168.705L347.961 199.42C348.157 199.704 348.088 200.094 347.802 200.289C347.692 200.365 347.569 200.401 347.447 200.401V200.399Z" fill="#CCE3FF"/>
<path d="M253.584 133.596L272.218 119.073L278.413 143.417L253.584 133.596Z" fill="#6F8137"/>
<path d="M325.951 61.0117C325.951 61.0117 325.915 60.9522 325.848 60.8427C325.806 60.7641 325.794 60.7712 325.775 60.7546C325.765 60.7451 325.758 60.7427 325.746 60.726C325.722 60.6998 325.696 60.6712 325.67 60.6403C325.57 60.5212 325.408 60.3546 325.213 60.1641C325.013 59.9713 324.772 59.7523 324.491 59.5166C323.372 58.5618 321.661 57.3619 319.88 56.312C318.992 55.7834 318.082 55.293 317.227 54.8692C316.799 54.6549 316.385 54.4645 315.992 54.2859C315.599 54.1121 315.228 53.9574 314.885 53.8217C314.544 53.6883 314.232 53.5764 313.961 53.4836C313.69 53.3955 313.454 53.3193 313.266 53.2669C313.073 53.2074 312.93 53.1765 312.83 53.1503C312.73 53.1241 312.678 53.1122 312.678 53.1122L312.654 53.1074C310.975 52.6836 309.959 50.9766 310.383 49.2981C310.806 47.6196 312.513 46.603 314.192 47.0268C314.325 47.0601 314.47 47.1101 314.594 47.1578C314.594 47.1578 314.67 47.1887 314.813 47.2458C314.956 47.3054 315.17 47.3863 315.423 47.503C315.682 47.6149 315.985 47.7601 316.328 47.9268C316.666 48.0982 317.039 48.2934 317.437 48.5148C317.835 48.7362 318.254 48.9838 318.687 49.2505C319.118 49.5195 319.568 49.8076 320.023 50.1171C320.932 50.7314 321.868 51.4146 322.772 52.1337C324.587 53.5669 326.282 55.1216 327.494 56.4739C327.798 56.8096 328.072 57.1381 328.313 57.4452C328.553 57.7571 328.76 58.0405 328.934 58.3142C329.074 58.5214 329.322 58.9666 329.351 59.0475C329.403 59.1642 329.429 59.2285 329.429 59.2285C329.862 60.2213 329.408 61.376 328.417 61.8069C327.508 62.2045 326.46 61.8545 325.958 61.0284L325.951 61.0165V61.0117Z" fill="#FFAD94"/>
<path d="M342.035 38.8869L322.844 43.2534C321.368 43.589 319.901 42.6653 319.565 41.1892C319.23 39.7131 320.153 38.2465 321.63 37.9108C321.699 37.8941 321.775 37.8822 321.844 37.8703L341.321 35.0419C342.39 34.8872 343.383 35.6276 343.538 36.6966C343.685 37.7108 343.016 38.6584 342.035 38.8869Z" fill="#FFAD94"/>
<path d="M341.79 31.0561L324.503 39.5532C323.146 40.2198 321.503 39.6603 320.837 38.3032C320.17 36.9462 320.73 35.3034 322.087 34.6368C322.151 34.6058 322.225 34.5725 322.289 34.5463L340.207 27.4777C341.212 27.0801 342.35 27.5753 342.745 28.58C343.121 29.5323 342.69 30.6085 341.788 31.0537L341.79 31.0561Z" fill="#FFAD94"/>
<path d="M335.05 23.5874L322.856 35.551C321.775 36.6105 320.042 36.5938 318.98 35.5153C317.92 34.4344 317.937 32.7012 319.016 31.6393C319.075 31.5822 319.139 31.5227 319.204 31.4727L332.441 20.6733C333.279 19.99 334.512 20.1162 335.196 20.9519C335.838 21.7399 335.76 22.8851 335.05 23.5851V23.5874Z" fill="#FFAD94"/>
<path d="M324.775 18.3878C324.775 18.3878 324.67 18.6711 324.484 19.1663C324.299 19.6591 324.029 20.3567 323.699 21.1924C323.368 22.0281 322.972 22.9994 322.534 24.0351C322.094 25.0707 321.62 26.1754 321.113 27.273C320.865 27.8229 320.604 28.3705 320.346 28.9086C320.094 29.449 319.82 29.9752 319.565 30.4895C319.315 31.0013 319.035 31.4942 318.789 31.9632C318.544 32.4322 318.273 32.8726 318.042 33.2798C317.816 33.6869 317.561 34.0607 317.356 34.394C317.251 34.5606 317.151 34.7154 317.061 34.8582C316.958 35.0035 316.866 35.1344 316.78 35.2558C316.437 35.7344 316.242 36.0082 316.242 36.0082C315.361 37.2391 313.649 37.5248 312.418 36.6439C311.187 35.763 310.902 34.0512 311.783 32.8203C311.825 32.7608 311.868 32.7036 311.914 32.6512L312.018 32.5274C312.018 32.5274 312.183 32.3322 312.471 31.9941C312.542 31.9084 312.623 31.8156 312.711 31.7132C312.797 31.6013 312.887 31.4775 312.987 31.3489C313.183 31.0823 313.413 30.8061 313.644 30.4561C313.878 30.1109 314.142 29.7538 314.402 29.3443C314.661 28.9348 314.949 28.5181 315.223 28.0563C315.499 27.5991 315.794 27.1349 316.075 26.6421C316.361 26.154 316.651 25.6588 316.93 25.1541C317.499 24.1517 318.044 23.1256 318.551 22.1638C319.056 21.1995 319.515 20.2901 319.904 19.5091C320.292 18.7259 320.608 18.0711 320.825 17.614C321.039 17.1569 321.163 16.8974 321.163 16.8974L321.175 16.8712C321.637 15.8951 322.801 15.4761 323.779 15.9379C324.706 16.3736 325.127 17.4497 324.777 18.3925L324.775 18.3878Z" fill="#FFAD94"/>
<path d="M316.466 26.3398C313.949 30.4539 311.942 34.4917 304.233 38.4487C301.555 39.8248 302.943 46.8434 306.385 49.6766C308.733 51.6074 313.804 55.1762 317.894 54.5144C323.429 53.6168 319.303 49.4456 326.017 40.6723C326.841 39.7224 319.158 26.5684 316.463 26.3398H316.466Z" fill="#FFAD94"/>
<path d="M242.025 101.033C241.977 101.033 241.93 101.029 241.882 101.017C235.016 99.4192 229.547 95.4765 226.066 89.6126C222.957 84.3772 221.638 77.918 222.352 71.4256C223.609 59.9786 231.49 48.365 246.256 48.2222C246.31 48.2222 246.37 48.2222 246.425 48.2222C256.886 48.2222 265.004 57.655 269.985 65.5926C270.168 65.8854 270.08 66.2711 269.788 66.4544C269.495 66.6378 269.109 66.5497 268.926 66.2568C264.114 58.5882 256.312 49.4721 246.422 49.4721C246.37 49.4721 246.317 49.4721 246.265 49.4721C232.266 49.6078 224.79 60.6643 223.593 71.5613C222.359 82.7916 227.642 96.4193 242.163 99.7977C242.499 99.8763 242.708 100.212 242.63 100.548C242.563 100.836 242.306 101.031 242.023 101.031L242.025 101.033Z" fill="#3984FF"/>
<path d="M259.217 90.8814C253.41 85.4531 272.199 68.0113 280.323 70.5111C289.763 73.4157 274.047 92.3051 274.047 92.3051C274.047 92.3051 262.738 94.174 259.217 90.8814Z" fill="#232A2B"/>
<path d="M208.836 166.741C200.473 162.724 221.869 114.118 231.687 118.567C236.873 125.022 227.054 160.636 227.054 160.636L216.879 167.924L208.836 166.741Z" fill="#2E353D"/>
<path d="M110.821 129.841C125.403 129.841 150.573 145.673 167.489 144.923C178.593 144.43 193.809 140.538 196.225 141.007C197.582 141.271 239.306 167.9 250.972 170.703C262.638 173.505 274.016 140.143 274.016 140.143C274.016 140.143 220.807 117.856 199.975 117.182C179.143 116.508 133.357 124.139 122.491 115.508L110.833 117.88L110.823 129.841H110.821Z" fill="#FFAD94"/>
<path d="M240.496 166.351L238.082 126.577C235.104 125.565 232.087 124.577 229.099 123.644C229.388 125.758 226.771 144.495 217.017 153.313C224.838 157.92 233.516 162.872 240.496 166.351Z" fill="#CE5F49"/>
<path d="M237.794 123.303C239.173 136.633 233.561 169.262 217.076 169.512C236.237 181.65 247.755 186.809 247.755 186.809C264.057 168.743 287.767 143.845 287.767 143.845C287.767 143.845 243.846 125.651 237.794 123.306V123.303Z" fill="#FA6142"/>
<path d="M248.558 187.813C246.741 188.547 238.437 184.302 236.951 179.397C235.466 174.493 247.389 176.378 247.389 176.378L248.56 187.811L248.558 187.813Z" fill="#232A2B"/>
<path d="M231.685 118.565C235.199 120.996 225.319 166.491 208.834 166.739C210.879 167.898 213.05 169.084 215.1 170.079C232.116 178.326 243.032 124.503 238.523 121.93C236.313 120.67 233.673 119.337 231.683 118.565H231.685Z" fill="#D83A21"/>
<path d="M335.369 152.454C337.131 156.649 340.714 154.871 340.714 151.704C340.714 148.538 335.369 143.664 335.369 143.664V152.454Z" fill="#ABBD43"/>
<path d="M244.056 178.734C243.979 178.734 243.903 178.719 243.827 178.691C238.58 176.641 224.507 166.141 223.911 165.694C223.635 165.487 223.578 165.096 223.785 164.82C223.992 164.544 224.383 164.487 224.659 164.694C224.804 164.803 239.192 175.539 244.282 177.527C244.603 177.653 244.763 178.015 244.636 178.336C244.541 178.584 244.303 178.734 244.053 178.734H244.056Z" fill="#D83A21"/>
<path d="M310.785 113.384L302.159 108.696L297.843 106.344L293.496 103.935L289.153 101.528C287.71 100.723 286.251 99.9279 284.825 99.1161L276.228 94.2663C273.361 92.6545 270.516 91.007 267.661 89.3809L263.385 86.9311L259.119 84.4645L254.855 81.998L250.598 79.5148L242.082 74.5151L241.22 74.0104C237.473 71.8105 236.22 66.9894 238.42 63.2444C239.249 61.8349 240.444 60.7802 241.82 60.1255L242.863 59.6232L243.856 59.1565L245.829 58.2494C247.144 57.6542 248.455 57.0709 249.77 56.5019C251.084 55.9305 252.4 55.371 253.719 54.8187C255.038 54.2687 256.362 53.7283 257.686 53.195C259.012 52.664 260.338 52.1403 261.671 51.626C263.005 51.1141 264.335 50.6046 265.676 50.1118C267.011 49.6118 268.357 49.1309 269.699 48.65C271.045 48.1738 272.392 47.7024 273.744 47.2453C275.094 46.7834 276.451 46.3406 277.811 45.8978C279.17 45.4621 280.532 45.0288 281.899 44.6145C283.261 44.1883 284.639 43.7979 286.008 43.3932C287.386 43.0075 288.758 42.6099 290.143 42.248C291.522 41.8694 292.912 41.5242 294.3 41.1719C294.993 40.9933 295.693 40.8362 296.391 40.6671C297.088 40.5028 297.783 40.3314 298.486 40.1814L300.586 39.7148L302.695 39.2791C304.097 38.9815 305.519 38.7387 306.928 38.4696C309.642 37.953 312.261 39.7315 312.778 42.4456C313.263 44.9954 311.721 47.462 309.283 48.1786L309.114 48.2262C307.811 48.6047 306.509 48.9523 305.214 49.3595L303.271 49.9547L301.336 50.5784C300.69 50.7808 300.048 51.0046 299.405 51.2213C298.762 51.4427 298.119 51.6522 297.479 51.8807C296.198 52.3355 294.917 52.7855 293.643 53.2664C292.367 53.7306 291.098 54.2306 289.829 54.7163C288.565 55.2234 287.296 55.7139 286.039 56.24C284.777 56.7543 283.522 57.2876 282.27 57.8233C281.018 58.3637 279.768 58.9065 278.525 59.466C277.28 60.0207 276.039 60.5898 274.801 61.1611C273.566 61.7397 272.33 62.3158 271.104 62.9111C269.873 63.4991 268.652 64.1038 267.43 64.7086C266.469 65.1871 265.512 65.6728 264.554 66.1609L267.469 67.3275L272.006 69.144L276.551 70.9415C279.582 72.1343 282.606 73.3462 285.644 74.5199L294.746 78.053C296.264 78.6482 297.774 79.2101 299.286 79.7886L303.821 81.51L308.354 83.2313L312.949 84.9359L322.156 88.3429H322.163C329.303 90.988 332.948 98.9184 330.308 106.059C327.665 113.199 319.735 116.844 312.594 114.203C311.992 113.979 311.347 113.682 310.797 113.387L310.785 113.384Z" fill="#FFAD94"/>
<path d="M283.956 73.8638C282.558 73.3162 281.163 72.7662 279.765 72.2139C279.551 75.6375 270.73 88.3034 263.385 86.9297L267.661 89.3795C269.164 90.2366 270.666 91.0985 272.166 91.9579C276.001 93.0412 279.446 93.8602 279.446 93.8602L283.956 73.8662V73.8638Z" fill="#CE5F49"/>
<path d="M326.382 194.09C325.125 200.649 319.594 204.368 312.578 205.789C310.652 203.863 307.571 195.126 307.571 195.126C307.571 195.126 306.045 202.547 302.248 206.346C291.417 205.546 280.189 200.785 276.054 193.507L307.45 161.592L325.632 165.134C325.632 165.134 326.81 191.159 326.382 194.09Z" fill="#232A2B"/>
<path d="M295.741 199.047C304.726 194.087 314.299 184.845 320.299 169.955L307.966 161.258L295.741 199.047Z" fill="#D83A21"/>
<path d="M306.345 110.12C314.061 113.67 329.251 100.888 327.972 92.7428C325.382 81.9077 280.322 70.5107 280.322 70.5107C282.51 78.3127 267.304 95.6545 259.217 90.881C267.018 96.8187 301.074 107.694 306.347 110.12H306.345Z" fill="#ABBD43"/>
<path d="M326.382 194.09C329.515 178.333 335.369 161.258 337.131 148.433C337.131 148.433 328.672 97.9143 327.972 92.7456C290.467 92.7456 277.692 152.285 264.471 160.275C305.235 158.342 325.848 162.061 326.382 194.09Z" fill="#ABBD43"/>
<path d="M301.966 106.885C301.859 106.885 301.75 106.857 301.652 106.8C301.355 106.626 301.255 106.242 301.428 105.945C305.476 99.0357 311.561 95.4455 315.951 93.6527C320.703 91.71 324.453 91.4005 324.61 91.3886C324.953 91.3624 325.256 91.6195 325.282 91.9623C325.308 92.3052 325.051 92.6075 324.708 92.6337C324.56 92.6456 309.911 93.9408 302.505 106.576C302.388 106.773 302.178 106.885 301.964 106.885H301.966Z" fill="#6F8137"/>
<path d="M299.24 138.383C286.679 137.407 286.396 143.83 286.974 159.991C312.832 161.048 325.958 168.615 326.382 194.087C327.963 186.14 330.234 177.857 332.324 169.953C332.324 169.953 327.205 140.552 299.238 138.381L299.24 138.383Z" fill="#6F8137"/>
<path d="M408.541 72.3848C419.183 72.6419 422.105 89.8837 411.384 96.819C402.137 102.8 389.08 97.0286 389.08 97.0286L386.49 79.2677L408.539 72.3871L408.541 72.3848Z" fill="#232A2B"/>
<path d="M353.99 163.765C353.99 163.765 353.954 164.127 353.887 164.805C353.88 164.889 353.871 164.979 353.861 165.072C353.856 165.155 353.849 165.243 353.844 165.334C353.832 165.517 353.818 165.717 353.804 165.936C353.785 166.148 353.78 166.396 353.771 166.658C353.763 166.919 353.749 167.198 353.744 167.493C353.728 168.672 353.766 170.112 353.916 171.767C354.068 173.421 354.34 175.29 354.778 177.312C355.218 179.333 355.84 181.502 356.649 183.752C357.473 185.997 358.477 188.328 359.713 190.644C360.937 192.968 362.382 195.282 364.022 197.513C365.663 199.744 367.508 201.886 369.522 203.865C371.536 205.841 373.722 207.65 376.022 209.224C377.167 210.019 378.355 210.731 379.545 211.403C380.74 212.069 381.959 212.657 383.178 213.2C385.626 214.25 388.092 215.062 390.492 215.581C392.89 216.112 395.211 216.402 397.366 216.49C399.52 216.578 401.508 216.5 403.261 216.314C403.699 216.276 404.12 216.209 404.53 216.162C404.734 216.136 404.934 216.109 405.132 216.083C405.327 216.05 405.52 216.019 405.708 215.988C406.084 215.924 406.448 215.871 406.791 215.807C407.134 215.738 407.463 215.671 407.775 215.607C408.398 215.49 408.946 215.343 409.429 215.231C409.91 215.121 410.315 215.005 410.643 214.912C411.301 214.729 411.651 214.631 411.651 214.631C411.651 214.631 411.308 214.752 410.665 214.981C410.343 215.095 409.946 215.24 409.472 215.383C408.998 215.529 408.458 215.714 407.841 215.874C407.534 215.959 407.208 216.048 406.867 216.14C406.525 216.228 406.165 216.307 405.789 216.398C405.601 216.443 405.41 216.486 405.215 216.533C405.018 216.571 404.818 216.612 404.613 216.652C404.203 216.728 403.782 216.824 403.339 216.893C401.58 217.202 399.566 217.421 397.356 217.483C395.147 217.545 392.74 217.409 390.221 217.031C387.7 216.662 385.076 215.995 382.438 215.071C381.126 214.59 379.805 214.062 378.5 213.448C377.2 212.829 375.898 212.162 374.634 211.407C372.093 209.915 369.651 208.16 367.37 206.21C365.089 204.26 362.972 202.115 361.056 199.856C359.142 197.594 357.425 195.223 355.935 192.813C354.432 190.411 353.171 187.963 352.106 185.578C351.056 183.185 350.209 180.85 349.566 178.643C348.926 176.436 348.476 174.36 348.176 172.498C347.876 170.636 347.719 168.986 347.645 167.619C347.626 167.279 347.619 166.953 347.607 166.648C347.595 166.343 347.583 166.06 347.588 165.777C347.588 165.498 347.588 165.243 347.588 165.008C347.588 164.891 347.588 164.777 347.588 164.672C347.59 164.577 347.592 164.484 347.595 164.398C347.614 163.715 347.626 163.353 347.626 163.353L353.983 163.758L353.99 163.765Z" fill="#2E353D"/>
<path d="M400.632 113.795C392.204 108.173 386.457 87.7841 374.688 86.4914C374.688 86.4914 365.832 95.2456 357.794 106.354C351.073 92.46 348.652 81.6845 348.652 81.6845C357.692 73.2897 378.469 64.6998 387.704 82.6082C401.858 110.061 433.523 107.738 448.606 120.92C452.877 124.653 459.517 136.343 453.448 146.783C453.831 125.172 416.581 124.432 400.632 113.795Z" fill="#2E353D"/>
<path d="M393.602 102.116C399.532 120.658 437.028 133.514 448.31 141.738C469.23 156.985 460.514 190.894 437.299 196.604C448.629 187.147 447.222 155.589 425.657 152.037C429.5 153.78 432.411 156.532 434.473 159.818C442.496 172.605 444.453 201.882 419.41 209.546C350.966 230.494 342.664 119.151 334.719 96.8309L334.51 82.9484L372.843 79.4248L388.152 89.9861L393.602 102.116Z" fill="#2E353D"/>
<path d="M388.3 83.6606C388.3 83.6606 388.495 83.8844 388.861 84.3058C389.04 84.5201 389.273 84.7725 389.54 85.0677C389.802 85.3653 390.118 85.6939 390.473 86.0629C391.187 86.7914 392.064 87.6556 393.133 88.558C394.197 89.4651 395.44 90.4245 396.849 91.3745C398.261 92.3244 399.844 93.2648 401.563 94.1696C403.282 95.079 405.151 95.9337 407.115 96.7623C408.103 97.1622 409.108 97.5717 410.139 97.9622C411.172 98.3479 412.222 98.7288 413.286 99.1026C415.417 99.8478 417.614 100.55 419.824 101.248C422.048 101.941 424.271 102.633 426.459 103.317C427.009 103.488 427.559 103.657 428.104 103.829C428.65 104.005 429.192 104.181 429.733 104.355C430.811 104.705 431.883 105.047 432.928 105.414C435.025 106.128 437.047 106.874 438.949 107.64C439.897 108.028 440.82 108.416 441.701 108.814C442.582 109.221 443.432 109.612 444.234 110.026C445.841 110.842 447.279 111.671 448.508 112.478C449.736 113.283 450.76 114.059 451.56 114.742C452.365 115.418 452.951 116.002 453.339 116.404C453.715 116.816 453.917 117.037 453.917 117.037C453.917 117.037 453.655 116.897 453.165 116.633C452.922 116.502 452.612 116.352 452.26 116.166C452.082 116.08 451.889 115.985 451.682 115.887C451.477 115.787 451.26 115.68 451.027 115.578C450.101 115.149 448.965 114.666 447.644 114.176C446.325 113.68 444.82 113.176 443.163 112.673C441.508 112.166 439.699 111.661 437.773 111.157C435.849 110.645 433.804 110.138 431.683 109.6C430.618 109.34 429.542 109.057 428.447 108.776C427.9 108.635 427.347 108.495 426.793 108.352C426.238 108.202 425.683 108.052 425.124 107.902C422.886 107.304 420.61 106.655 418.343 105.943C416.076 105.226 413.817 104.445 411.62 103.571C411.07 103.357 410.522 103.136 409.982 102.91C409.441 102.679 408.905 102.443 408.375 102.205C407.313 101.729 406.272 101.231 405.265 100.705C403.249 99.6573 401.351 98.5217 399.632 97.3194C397.916 96.1123 396.375 94.8481 395.054 93.5791C393.735 92.3054 392.633 91.034 391.745 89.8508C390.852 88.6699 390.183 87.5676 389.676 86.6486C389.552 86.4176 389.433 86.1986 389.323 85.9915C389.214 85.7843 389.126 85.582 389.035 85.3986C388.857 85.0296 388.714 84.7177 388.614 84.4582C388.407 83.9416 388.295 83.6654 388.295 83.6654L388.3 83.6606Z" fill="#2E353D"/>
<path d="M453.915 117.035C453.915 117.035 454.074 117.096 454.365 117.225C454.505 117.299 454.686 117.389 454.893 117.504C455.093 117.623 455.331 117.754 455.579 117.923C456.086 118.251 456.674 118.689 457.317 119.232C457.952 119.782 458.652 120.43 459.348 121.206C459.529 121.394 459.702 121.596 459.874 121.806C460.048 122.015 460.229 122.225 460.402 122.444C460.745 122.889 461.1 123.353 461.433 123.856C461.786 124.344 462.088 124.884 462.421 125.425C462.578 125.701 462.728 125.984 462.878 126.272C463.036 126.558 463.174 126.853 463.312 127.155C463.885 128.351 464.354 129.65 464.709 131.01C465.09 132.365 465.276 133.795 465.381 135.224L465.412 136.3C465.426 136.66 465.39 137.017 465.383 137.374C465.378 138.09 465.262 138.795 465.178 139.495C465.078 140.193 464.921 140.876 464.766 141.545C464.671 141.876 464.576 142.204 464.483 142.531C464.393 142.857 464.295 143.178 464.166 143.488C463.716 144.74 463.171 145.902 462.581 146.949C462.428 147.209 462.276 147.464 462.128 147.716C461.978 147.966 461.843 148.218 461.671 148.442C461.348 148.899 461.033 149.342 460.733 149.768C460.412 150.178 460.09 150.556 459.788 150.916C459.636 151.094 459.488 151.268 459.343 151.437C459.195 151.604 459.041 151.756 458.895 151.904C458.6 152.202 458.329 152.48 458.069 152.732C457.941 152.859 457.817 152.978 457.7 153.094C457.574 153.201 457.455 153.306 457.341 153.404C456.888 153.794 456.519 154.085 456.274 154.289C456.026 154.489 455.891 154.592 455.891 154.592C455.891 154.592 455.976 154.444 456.136 154.166C456.303 153.894 456.534 153.487 456.845 152.992C456.924 152.868 457.005 152.737 457.091 152.599C457.169 152.459 457.253 152.311 457.338 152.156C457.507 151.847 457.7 151.521 457.9 151.171C457.998 150.994 458.11 150.818 458.21 150.63C458.307 150.44 458.407 150.244 458.51 150.042C458.712 149.64 458.945 149.23 459.16 148.79C459.364 148.347 459.576 147.885 459.798 147.409C459.914 147.173 460.007 146.926 460.107 146.676C460.207 146.426 460.307 146.173 460.409 145.916C460.809 144.89 461.164 143.792 461.462 142.65C461.55 142.366 461.6 142.074 461.664 141.781C461.726 141.49 461.79 141.195 461.852 140.9C461.909 140.605 461.938 140.302 461.983 140L462.055 139.548L462.09 139.321L462.109 139.093C462.157 138.483 462.221 137.869 462.224 137.25C462.224 136.941 462.255 136.631 462.236 136.321L462.197 135.393L462.193 135.16L462.171 134.929L462.128 134.464C462.097 134.155 462.083 133.845 462.024 133.541C461.974 133.236 461.928 132.929 461.888 132.622C461.836 132.317 461.767 132.017 461.707 131.715L461.614 131.265L461.498 130.819C461.419 130.524 461.357 130.224 461.269 129.936C461.09 129.355 460.917 128.781 460.712 128.224C460.529 127.658 460.281 127.127 460.079 126.589C459.845 126.063 459.619 125.544 459.371 125.051C458.895 124.056 458.381 123.134 457.879 122.299C457.383 121.456 456.874 120.713 456.417 120.053C455.953 119.401 455.524 118.839 455.155 118.392C454.974 118.163 454.798 117.975 454.653 117.796C454.5 117.63 454.369 117.487 454.262 117.373C454.034 117.149 453.912 117.03 453.912 117.03L453.915 117.035Z" fill="#2E353D"/>
<path d="M400.177 141.257C400.177 141.257 400.161 141.257 400.154 141.257C379.386 140.469 370.655 128.31 367.37 123.732L367.172 123.458C366.97 123.177 367.034 122.786 367.315 122.586C367.596 122.384 367.986 122.448 368.186 122.729L368.384 123.005C371.874 127.865 380.043 139.247 400.201 140.012C400.546 140.023 400.815 140.314 400.801 140.659C400.789 140.997 400.511 141.261 400.177 141.261V141.257Z" fill="#E5BC0E"/>
<path d="M361.137 183.84C363.491 186.086 369.865 180.007 370.177 171.446C370.489 162.885 358.178 169.956 358.178 169.956C358.178 169.956 357.649 180.514 361.137 183.84Z" fill="#232A2B"/>
<path d="M353.521 121.586C353.521 121.586 353.756 122.039 354.199 122.884C354.647 123.727 355.304 124.965 356.14 126.539C356.987 128.105 357.994 130.022 359.187 132.195C360.38 134.369 361.701 136.838 363.187 139.502C364.67 142.166 366.253 145.071 367.97 148.111C369.684 151.154 371.491 154.365 373.362 157.684C374.305 159.339 375.262 161.022 376.234 162.727C377.21 164.427 378.195 166.148 379.191 167.881C380.191 169.612 381.198 171.357 382.209 173.11C383.226 174.86 384.245 176.614 385.264 178.369C385.776 179.245 386.288 180.123 386.797 181L387.564 182.314L387.754 182.642L387.85 182.807L387.897 182.888C387.804 182.759 388.14 183.235 387.695 182.609L387.721 182.65C387.742 182.685 387.74 182.688 387.75 182.709C387.75 182.714 387.761 182.733 387.773 182.752L387.809 182.809C387.854 182.883 387.904 182.959 387.961 183.042C388.397 183.702 388.926 184.423 389.464 185.126C390.002 185.833 390.573 186.54 391.152 187.237C392.323 188.63 393.554 189.99 394.811 191.306C396.073 192.62 397.378 193.88 398.685 195.104C401.315 197.53 404.001 199.765 406.653 201.763C409.301 203.765 411.898 205.562 414.367 207.115C414.981 207.508 415.586 207.891 416.186 208.248C416.784 208.61 417.369 208.965 417.938 209.31C418.517 209.641 419.081 209.962 419.629 210.276C420.176 210.593 420.714 210.886 421.24 211.167C421.764 211.45 422.271 211.724 422.762 211.988C423.252 212.253 423.733 212.491 424.193 212.726C425.114 213.191 425.959 213.619 426.738 213.979C427.512 214.343 428.2 214.681 428.807 214.955C429.416 215.224 429.935 215.45 430.357 215.636C431.199 216.002 431.649 216.198 431.649 216.198L431.756 216.243C434.29 217.343 435.449 220.288 434.349 222.821C433.275 225.292 430.435 226.454 427.945 225.485C427.945 225.485 427.457 225.295 426.545 224.938C426.088 224.761 425.524 224.542 424.859 224.285C424.2 224.019 423.44 223.714 422.59 223.371C421.736 223.035 420.802 222.635 419.788 222.197C419.279 221.978 418.745 221.764 418.198 221.521C417.653 221.278 417.086 221.026 416.5 220.766C414.165 219.714 411.543 218.483 408.725 217.04C405.91 215.588 402.877 213.96 399.742 212.081C396.609 210.198 393.356 208.096 390.073 205.755C386.795 203.401 383.486 200.822 380.248 197.908C379.436 197.177 378.626 196.432 377.822 195.646C377.014 194.861 376.219 194.058 375.391 193.147C375.288 193.035 375.181 192.916 375.072 192.789L374.898 192.589L374.696 192.347L374.665 192.311C374.203 191.659 374.519 192.108 374.41 191.954L374.353 191.878L374.236 191.728L374.005 191.425L373.079 190.218C372.462 189.413 371.843 188.609 371.227 187.802C369.989 186.192 368.748 184.583 367.515 182.98C366.277 181.381 365.044 179.788 363.82 178.207C362.592 176.628 361.373 175.064 360.17 173.517C358.961 171.974 357.766 170.45 356.592 168.95C354.228 165.962 351.94 163.074 349.773 160.334C347.609 157.594 345.521 155.027 343.616 152.647C341.714 150.263 339.931 148.104 338.369 146.178C336.81 144.252 335.419 142.592 334.288 141.214C333.148 139.845 332.25 138.769 331.641 138.035C331.024 137.305 330.696 136.916 330.696 136.916C325.772 131.076 326.515 122.351 332.355 117.425C338.195 112.501 346.921 113.244 351.847 119.084C352.494 119.853 353.075 120.736 353.53 121.591L353.521 121.586Z" fill="#FFAD94"/>
<path d="M397.635 166.798C397.599 166.798 397.561 166.796 397.525 166.789C397.185 166.729 396.959 166.403 397.018 166.065C399.813 150.294 390.964 142.14 382.402 134.255C377.038 129.315 371.972 124.646 370.31 118.42C370.222 118.087 370.42 117.744 370.753 117.656C371.086 117.568 371.429 117.765 371.517 118.099C373.086 123.974 378.022 128.522 383.247 133.336C391.645 141.071 401.161 149.84 398.247 166.281C398.192 166.584 397.93 166.798 397.632 166.798H397.635Z" fill="#E5BC0E"/>
<path d="M375.191 160.905L366.889 154.882L356.147 168.395C356.292 168.581 356.437 168.762 356.582 168.948C357.758 170.448 358.951 171.971 360.161 173.514C361.365 175.062 362.582 176.626 363.81 178.204C364.163 178.659 364.518 179.116 364.87 179.573C365.272 170.412 370.912 165.131 375.188 160.905H375.191Z" fill="#CE5F49"/>
<path d="M361.137 183.84C355.247 176.524 370.386 161.425 375.388 160.877C375.388 160.877 353.947 122.489 353.392 121.401C352.835 120.323 352.099 119.239 351.237 118.304C346.045 112.666 337.267 112.302 331.627 117.494C325.989 122.687 325.556 131.01 330.179 138.136C333.338 143.005 354.135 176.976 361.137 183.843V183.84Z" fill="#ABBD43"/>
<path d="M354.404 160.013C354.404 160.013 354.385 160.013 354.373 160.013C334.296 159.061 318.339 151.278 305.592 136.219C294.531 123.153 287.413 106.409 281.13 91.6386C277.104 82.1701 273.299 73.2277 268.926 66.2543C268.742 65.9615 268.83 65.5758 269.123 65.3925C269.416 65.2092 269.802 65.2973 269.985 65.5901C274.413 72.6468 278.235 81.6344 282.282 91.1481C294.695 120.337 310.145 156.663 354.435 158.763C354.78 158.78 355.047 159.073 355.03 159.418C355.013 159.754 354.737 160.013 354.406 160.013H354.404Z" fill="#3984FF"/>
<path d="M373.672 161.396L356.02 130.231C355.849 129.931 355.468 129.824 355.168 129.995C354.868 130.167 354.761 130.548 354.932 130.848L372.584 162.013C372.967 161.784 373.334 161.584 373.681 161.42C373.677 161.41 373.674 161.401 373.669 161.394L373.672 161.396Z" fill="#6F8137"/>
<path d="M313.64 143.842C313.994 136.447 306.369 135.604 306.369 135.604C306.369 135.604 298.119 161.134 302.557 161.258C306.995 161.382 313.371 149.485 313.64 143.842Z" fill="#232A2B"/>
<path d="M327.972 92.7432C327.972 92.7432 334.169 99.419 340.931 99.5309L346.459 122.422C346.459 122.422 338.648 117.358 330.436 118.725C322.225 120.092 327.975 92.7432 327.975 92.7432H327.972Z" fill="#FFAD94"/>
<path d="M334.51 118.537C334.51 118.537 334.51 118.537 334.51 118.539C340.576 118.973 346.457 122.422 346.457 122.422L342.069 106.411L341.669 97.4453C341.669 97.4453 333.215 107.061 334.51 118.535V118.537Z" fill="#CE5F49"/>
<path d="M327.972 92.7432C316.306 100.347 309.587 120.865 319.889 126.341C326.472 129.841 334.51 118.537 334.51 118.537L327.972 92.7432Z" fill="#FFAD94"/>
<path d="M339.374 102.51C339.374 102.51 345.166 129.739 355.973 131.329C362.856 132.343 375.431 123.104 376.936 115.14C377.16 113.952 389.078 104.693 387.871 94.8147C386.664 84.9368 386.14 66.0331 360.684 68.3806C335.231 70.7281 339.374 102.512 339.374 102.512V102.51Z" fill="#FFAD94"/>
<path d="M389.552 95.7307C389.488 95.2069 389.426 94.6569 389.361 94.0903L376.119 81.6839C376.119 81.6839 366.256 75.9128 366.256 81.5268C371.874 91.4571 370.415 105.694 380.55 110.849C383.667 108.03 390.314 101.973 389.552 95.7307Z" fill="#CE5F49"/>
<path d="M353.83 70.1987C347.404 72.8723 343.735 77.9625 341.669 83.3812L351.794 93.6378C351.794 93.6378 359.22 81.6861 367.636 81.3742C376.798 81.0361 382.652 96.2019 388.892 95.7305C389.126 95.7138 389.337 95.6662 389.535 95.5948C388.818 89.6713 390.628 80.5933 382.935 74.6556L353.83 70.1963V70.1987Z" fill="#2E353D"/>
<path d="M339.764 95.3237C339.764 95.3237 339.679 95.6499 339.517 96.2594C339.436 96.5641 339.338 96.9379 339.224 97.3784C339.124 97.7998 339.012 98.2831 338.883 98.8259C338.757 99.3687 338.643 99.9925 338.502 100.659C338.433 100.995 338.383 101.345 338.319 101.707C338.262 102.069 338.186 102.445 338.136 102.835C337.905 104.392 337.722 106.154 337.653 108.08C337.583 110.004 337.645 112.092 337.919 114.275C338.048 115.368 338.255 116.477 338.498 117.608C338.641 118.168 338.76 118.741 338.933 119.303C339.014 119.587 339.098 119.872 339.181 120.158C339.274 120.441 339.367 120.725 339.462 121.01C339.852 122.148 340.293 123.294 340.824 124.42C341.345 125.551 341.926 126.674 342.583 127.772C343.878 129.979 345.431 132.1 347.123 134.124C347.973 135.133 348.857 136.119 349.764 137.083C350.673 138.043 351.604 138.983 352.544 139.902C354.428 141.738 356.349 143.492 358.218 145.19C360.087 146.887 361.899 148.533 363.582 150.137C365.26 151.747 366.813 153.308 368.167 154.827C369.522 156.344 370.691 157.799 371.639 159.151C372.589 160.503 373.329 161.736 373.877 162.786C374.022 163.044 374.138 163.298 374.257 163.534C374.372 163.772 374.488 163.989 374.579 164.201C374.762 164.622 374.929 164.974 375.043 165.267C375.274 165.855 375.398 166.17 375.398 166.17C375.398 166.17 375.257 165.865 374.993 165.291C374.862 165.003 374.674 164.663 374.469 164.255C374.369 164.051 374.238 163.841 374.112 163.613C373.981 163.386 373.853 163.141 373.693 162.894C373.093 161.884 372.289 160.706 371.277 159.425C370.265 158.144 369.032 156.775 367.61 155.358C366.191 153.937 364.57 152.485 362.82 150.987C361.063 149.494 359.17 147.961 357.206 146.373C355.242 144.783 353.211 143.13 351.192 141.378C350.185 140.5 349.18 139.597 348.19 138.664C347.204 137.728 346.233 136.762 345.288 135.762C343.407 133.76 341.64 131.617 340.117 129.331C339.348 128.196 338.648 127.017 338.012 125.824C337.367 124.634 336.812 123.41 336.312 122.186C336.191 121.879 336.072 121.572 335.95 121.267C335.841 120.958 335.734 120.651 335.624 120.344C335.398 119.732 335.231 119.11 335.038 118.501C334.7 117.272 334.4 116.058 334.188 114.861C333.748 112.47 333.55 110.175 333.503 108.061C333.46 105.947 333.548 104.014 333.703 102.311C333.734 101.885 333.791 101.476 333.831 101.078C333.879 100.683 333.912 100.297 333.967 99.933C334.077 99.2021 334.16 98.5355 334.265 97.9236C334.372 97.3117 334.469 96.7641 334.553 96.2903C334.643 95.8404 334.722 95.4547 334.784 95.1452C334.91 94.5262 334.979 94.1976 334.979 94.1976C335.253 92.8644 336.553 92.0073 337.886 92.2787C339.219 92.5525 340.076 93.8524 339.805 95.1856C339.795 95.2285 339.783 95.2809 339.771 95.3237H339.764Z" fill="#2E353D"/>
<path d="M361.98 165.496C363.165 164.296 363.551 162.755 362.839 162.051C362.127 161.346 360.589 161.748 359.403 162.948C358.218 164.148 360.792 166.696 361.98 165.496Z" fill="#3984FF"/>
<path d="M359.125 166.66C358.856 166.66 358.592 166.536 358.42 166.305L353.699 159.908C353.411 159.52 353.494 158.972 353.885 158.684C354.273 158.396 354.82 158.479 355.109 158.87L359.83 165.267C360.118 165.655 360.034 166.203 359.644 166.491C359.487 166.605 359.306 166.662 359.125 166.662V166.66Z" fill="#3984FF"/>
<path d="M359.123 167.857C360.267 167.857 361.194 166.93 361.194 165.786C361.194 164.642 360.267 163.715 359.123 163.715C357.979 163.715 357.051 164.642 357.051 165.786C357.051 166.93 357.979 167.857 359.123 167.857Z" fill="#3984FF"/>
<path d="M369.803 96.1665C367.244 93.7547 362.132 93.419 358.961 94.1832C356.632 94.7427 355.194 96.4141 355.194 96.4141C355.194 96.4141 355.97 93.6523 359.63 91.85C361.427 90.9644 364.575 90.1525 367.122 90.8739C371.972 92.2453 369.803 96.1665 369.803 96.1665Z" fill="#2E353D"/>
<path d="M369.803 96.1662C369.803 96.1662 369.61 96.14 369.358 96.0995C369.1 96.0614 368.781 96.0114 368.465 95.9829C368.386 95.971 368.305 95.971 368.227 95.9615C368.148 95.9519 368.07 95.9543 367.993 95.9472C367.917 95.94 367.843 95.9448 367.772 95.9376C367.701 95.9305 367.632 95.9329 367.567 95.9305C367.503 95.9305 367.441 95.9234 367.389 95.9234C367.336 95.9234 367.286 95.9234 367.246 95.921C367.165 95.9162 367.115 95.9091 367.115 95.9091C367.115 95.9091 367.148 95.8734 367.212 95.821C367.277 95.7686 367.37 95.6924 367.498 95.6329C367.562 95.602 367.632 95.5639 367.71 95.5424C367.789 95.5186 367.87 95.4877 367.958 95.4758C368.046 95.4639 368.136 95.4424 368.231 95.4448C368.324 95.4424 368.422 95.4401 368.515 95.452C368.61 95.4615 368.703 95.4758 368.796 95.4996C368.889 95.5186 368.974 95.552 369.058 95.5805C369.222 95.6472 369.367 95.7281 369.479 95.8162C369.71 95.9829 369.805 96.1614 369.805 96.1614L369.803 96.1662Z" fill="#2E353D"/>
<path d="M387.4 113.74C387.4 113.74 387.235 113.709 386.928 113.654C386.621 113.604 386.173 113.506 385.602 113.373C385.038 113.225 384.347 113.042 383.576 112.756C382.805 112.478 381.945 112.118 381.05 111.623C380.155 111.133 379.226 110.511 378.324 109.747C377.422 108.983 376.543 108.078 375.755 107.045C374.957 106.019 374.253 104.869 373.627 103.662C373.005 102.45 372.472 101.176 372.01 99.8834C371.086 97.2979 370.436 94.6528 369.848 92.2196C369.265 89.7864 368.729 87.5556 368.129 85.7866C367.832 84.9034 367.517 84.1391 367.208 83.5153C366.901 82.8892 366.591 82.4154 366.327 82.0678C366.06 81.7202 365.834 81.5083 365.684 81.3631C365.529 81.2321 365.446 81.1631 365.446 81.1631L365.437 81.1536C364.437 80.3108 364.308 78.8156 365.151 77.8133C365.994 76.8133 367.489 76.6848 368.491 77.5276C368.551 77.5776 368.61 77.6324 368.663 77.6871C368.663 77.6871 368.82 77.849 369.101 78.1609C369.365 78.4775 369.746 78.9537 370.117 79.5822C370.489 80.2084 370.86 80.9798 371.172 81.8488C371.486 82.7201 371.758 83.6915 371.984 84.7319C372.436 86.8128 372.724 89.165 373.034 91.6339C373.346 94.1004 373.686 96.6908 374.281 99.2049C374.579 100.46 374.941 101.695 375.388 102.874C375.838 104.05 376.367 105.174 376.993 106.195C377.61 107.221 378.322 108.145 379.081 108.947C379.838 109.752 380.645 110.435 381.445 110.995C382.243 111.559 383.033 111.999 383.75 112.354C384.466 112.714 385.124 112.968 385.664 113.178C386.209 113.368 386.642 113.518 386.942 113.602C387.24 113.692 387.4 113.74 387.4 113.74Z" fill="#2E353D"/>
<path d="M371.239 113.74C371.239 113.74 371.074 113.695 370.767 113.609C370.46 113.518 370.005 113.418 369.448 113.192C369.308 113.14 369.158 113.085 369.003 113.028C368.924 112.999 368.846 112.968 368.763 112.94C368.684 112.904 368.603 112.866 368.522 112.828C368.196 112.671 367.834 112.519 367.46 112.323C367.098 112.114 366.698 111.907 366.298 111.654C366.101 111.523 365.901 111.388 365.694 111.25C365.589 111.181 365.484 111.109 365.379 111.04C365.275 110.966 365.177 110.885 365.072 110.804C364.868 110.645 364.658 110.481 364.444 110.312C364.225 110.147 364.032 109.95 363.82 109.764C363.615 109.571 363.389 109.39 363.191 109.176C362.989 108.966 362.784 108.752 362.575 108.535C361.77 107.645 360.963 106.65 360.275 105.521C360.187 105.381 360.096 105.243 360.006 105.102C359.925 104.957 359.844 104.812 359.761 104.664C359.601 104.369 359.425 104.076 359.275 103.771C359.127 103.464 358.98 103.152 358.83 102.841C358.675 102.529 358.563 102.202 358.427 101.879C357.913 100.579 357.489 99.2098 357.228 97.798C356.956 96.3909 356.789 94.9505 356.801 93.522L356.797 92.9863C356.806 92.8078 356.816 92.6316 356.823 92.453C356.844 92.0983 356.851 91.7436 356.887 91.3936C356.928 91.0436 356.97 90.6936 357.011 90.3484L357.042 90.0889L357.089 89.8318C357.12 89.6603 357.154 89.4913 357.185 89.3223C357.294 88.639 357.487 87.9866 357.654 87.339C357.739 87.0153 357.858 86.7081 357.961 86.3963C358.07 86.0891 358.158 85.7749 358.292 85.4844C358.542 84.8963 358.768 84.3107 359.058 83.7821C359.196 83.5131 359.332 83.2464 359.466 82.9869C359.611 82.7322 359.763 82.4917 359.908 82.2489C360.056 82.0084 360.196 81.7703 360.344 81.5442C360.501 81.3251 360.654 81.1109 360.804 80.9013C360.954 80.6918 361.101 80.4895 361.244 80.2919C361.396 80.1014 361.551 79.9228 361.696 79.7466C361.844 79.5705 361.987 79.4014 362.125 79.2372C362.194 79.1538 362.263 79.0753 362.33 78.9943C362.401 78.9205 362.472 78.8467 362.542 78.7753C362.82 78.4896 363.075 78.2301 363.306 77.9944C363.532 77.7515 363.761 77.5658 363.949 77.3944C364.141 77.2254 364.303 77.0801 364.437 76.9635C364.703 76.7302 364.846 76.6064 364.846 76.6064C365.832 75.7421 367.332 75.8397 368.196 76.8254C369.06 77.811 368.963 79.311 367.977 80.1752C367.915 80.23 367.851 80.2799 367.784 80.3276L367.663 80.4133C367.663 80.4133 367.539 80.5014 367.308 80.6633C367.191 80.7442 367.048 80.8466 366.879 80.9656C366.713 81.087 366.508 81.2132 366.31 81.387C366.106 81.5561 365.877 81.7418 365.629 81.9441C365.568 81.9941 365.503 82.0465 365.439 82.0989C365.379 82.156 365.318 82.2156 365.256 82.2751C365.132 82.3941 365.001 82.5179 364.868 82.6465C364.734 82.775 364.594 82.9036 364.453 83.0441C364.322 83.1893 364.187 83.3417 364.049 83.494C363.908 83.6488 363.765 83.8059 363.618 83.9702C363.48 84.1392 363.349 84.3202 363.206 84.4987C363.068 84.6797 362.92 84.863 362.78 85.0559C362.649 85.2558 362.515 85.4582 362.38 85.6653C362.089 86.0701 361.861 86.5296 361.596 86.9891C361.458 87.2153 361.361 87.4676 361.242 87.7128C361.132 87.9604 360.999 88.2057 360.899 88.4676C360.704 88.9913 360.477 89.5223 360.325 90.0889C360.282 90.2294 360.239 90.3698 360.196 90.5127L360.132 90.727L360.082 90.9436C360.016 91.2364 359.946 91.5293 359.877 91.8245C359.811 92.1221 359.775 92.4268 359.723 92.7292L359.646 93.1887L359.601 93.653C359.454 94.8958 359.461 96.1814 359.566 97.4646C359.661 98.7503 359.906 100.026 360.246 101.262C360.339 101.569 360.408 101.883 360.518 102.181C360.623 102.481 360.727 102.781 360.832 103.079C360.939 103.374 361.073 103.66 361.189 103.948C361.251 104.09 361.311 104.236 361.37 104.379C361.439 104.517 361.508 104.655 361.577 104.793C362.101 105.909 362.751 106.914 363.413 107.835C363.587 108.062 363.758 108.283 363.927 108.502C364.091 108.726 364.287 108.916 364.46 109.121C364.641 109.319 364.806 109.528 364.996 109.704C365.182 109.885 365.365 110.064 365.544 110.238C365.634 110.323 365.72 110.414 365.813 110.495C365.906 110.573 365.998 110.652 366.091 110.728C366.275 110.883 366.456 111.033 366.629 111.181C366.987 111.466 367.348 111.704 367.679 111.947C368.02 112.173 368.353 112.361 368.658 112.549C368.734 112.595 368.808 112.64 368.882 112.683C368.958 112.721 369.032 112.757 369.105 112.795C369.251 112.869 369.389 112.938 369.522 113.002C370.043 113.283 370.491 113.433 370.784 113.557C371.079 113.676 371.239 113.737 371.239 113.737V113.74Z" fill="#2E353D"/>
<path d="M370.812 81.3745C378.619 90.3978 377.226 112.446 392.552 110.758C402.461 109.668 387.966 85.1219 387.966 85.1219L370.812 81.3745Z" fill="#2E353D"/>
<path d="M365.118 113.244C365.118 113.244 365.168 113.339 365.253 113.506C365.332 113.658 365.465 113.887 365.632 114.151C365.718 114.282 365.813 114.425 365.92 114.57C366.025 114.72 366.146 114.863 366.27 115.02C366.401 115.165 366.532 115.33 366.682 115.472C366.756 115.546 366.829 115.622 366.906 115.696L367.144 115.908C367.301 116.056 367.477 116.172 367.644 116.308C367.817 116.425 367.994 116.544 368.17 116.646C368.351 116.737 368.52 116.846 368.696 116.913C368.87 116.982 369.034 117.063 369.193 117.11C369.353 117.158 369.501 117.203 369.632 117.244C369.765 117.279 369.882 117.294 369.979 117.315C370.174 117.353 370.286 117.375 370.286 117.375C370.286 117.375 370.172 117.384 369.974 117.401C369.874 117.408 369.751 117.425 369.61 117.427C369.467 117.425 369.308 117.42 369.134 117.418C368.958 117.415 368.772 117.379 368.567 117.358C368.363 117.337 368.158 117.277 367.936 117.232C367.72 117.177 367.498 117.103 367.272 117.029C367.056 116.939 366.82 116.863 366.608 116.751L366.279 116.591C366.175 116.532 366.068 116.472 365.965 116.415C365.753 116.301 365.56 116.165 365.365 116.041C365.179 115.908 364.994 115.782 364.832 115.649C364.663 115.52 364.513 115.389 364.372 115.27C364.094 115.022 363.875 114.811 363.718 114.644C363.572 114.489 363.489 114.403 363.489 114.403C363.106 113.999 363.125 113.358 363.53 112.975C363.934 112.592 364.575 112.611 364.958 113.015C365.022 113.084 365.075 113.158 365.118 113.237V113.244Z" fill="#E27960"/>
<path d="M309.138 107.583C311.057 111.759 312.554 140.383 310.369 154.633C308.183 168.882 272.218 161.923 272.218 161.923L309.138 107.583Z" fill="#FFAD94"/>
<path d="M276.975 158.342C276.975 158.342 308.89 166.258 313.64 143.843C313.14 160.842 314.449 202.063 282.308 202.006C250.453 201.951 243.184 178.634 243.184 178.634L276.975 158.342Z" fill="#FA6142"/>
<path d="M358.149 150.851C358.08 150.851 358.011 150.84 357.942 150.816C347.149 147.042 340.957 141.916 339.017 135.15C337.352 129.343 339.164 123.286 340.619 118.418C341.509 115.442 342.278 112.87 342.178 110.88C342.162 110.535 342.426 110.242 342.771 110.225C343.119 110.204 343.409 110.473 343.426 110.818C343.538 113.023 342.74 115.689 341.816 118.777C340.333 123.734 338.652 129.353 340.219 134.805C342.04 141.154 347.973 146.004 358.354 149.635C358.68 149.749 358.851 150.106 358.737 150.43C358.646 150.687 358.406 150.849 358.146 150.849L358.149 150.851Z" fill="#FCD738"/>
<path d="M287.122 163.563C296.846 151.573 304.024 138.55 306.874 128.001L290.022 135.717L272.218 161.923C272.218 161.923 279.156 163.266 287.122 163.563Z" fill="#CE5F49"/>
<path d="M276.975 158.342L271.318 161.739L267.433 164.696C271.328 167.613 302.743 173.884 315.054 159.008C314.949 154.644 314.18 146.783 313.649 142.552C311.447 165.446 276.973 158.342 276.973 158.342H276.975Z" fill="#D83A21"/>
<path d="M276.975 158.341L243.184 178.633C243.184 178.633 245.47 185.961 253.091 192.413C267.142 185.242 280.501 172.512 290.405 159.348C283.225 159.489 276.975 158.344 276.975 158.344V158.341Z" fill="#232A2B"/>
<path d="M227.062 182.433C245.106 167.21 274.809 101.545 295.141 100.262C316.016 98.9429 314.973 125.344 294.808 144.176C274.642 163.008 254.105 174.067 240.887 187.923L227.062 182.433Z" fill="#FFAD94"/>
<path d="M285.21 202.518C284.87 202.518 284.591 202.244 284.586 201.903C284.582 201.558 284.858 201.275 285.201 201.268C294.779 201.12 301.614 194.389 305.516 181.262C308.461 171.35 308.521 161.358 308.521 161.258C308.521 160.913 308.802 160.634 309.145 160.634C309.49 160.634 309.768 160.915 309.768 161.26C309.768 161.363 309.706 171.534 306.711 181.616C304.94 187.576 302.504 192.347 299.471 195.801C295.633 200.172 290.836 202.429 285.217 202.518H285.208H285.21Z" fill="#D83A21"/>
<path d="M326.724 125.808C307.757 127.015 319.882 99.531 326.413 93.8599C315.73 102.183 310.056 121.115 319.889 126.344C322.125 127.532 324.527 127.013 326.724 125.81V125.808Z" fill="#CE5F49"/>
<path d="M440.93 226.159L444.796 229.695C446.208 231.071 448.939 232.128 450.205 229.928L444.196 224.471L440.93 226.162V226.159Z" fill="#CE5F49"/>
<path d="M442.439 222.747C441.892 223.864 442.308 225.228 443.406 225.842L455.984 233.025C458.298 234.447 462.286 235.039 463.321 231.699L445.713 221.724C444.575 221.088 443.137 221.493 442.501 222.631C442.48 222.669 442.458 222.707 442.439 222.747Z" fill="#E27960"/>
<path d="M469.309 225.585C469.283 228.966 464.078 229.08 464.078 229.08L434.721 226.638L429.409 223.895L432.583 216.698C444.372 222.643 469.311 225.585 469.311 225.585H469.309Z" fill="#FFAD94"/>
<path d="M417.733 220.69C419.01 224.828 423.421 228.44 423.421 228.44L418.045 232.314C418.045 232.314 418.838 235.397 422.357 234.156C424.79 233.299 435.88 225.861 435.88 225.861L417.733 220.688V220.69Z" fill="#FFAD94"/>
<path d="M101.583 135.74C107.128 135.635 114.989 130.436 114.989 130.436C114.989 130.436 113.694 123.746 118.127 121.077C122.889 118.21 125.067 113.353 119.349 107.094C115.885 106.39 112.928 101.266 111.59 97.352C110.832 95.1354 115.801 76.7984 106.118 72.4701C98.238 68.9489 98.057 112.184 98.057 112.184L101.583 135.74Z" fill="#3984FF"/>
<path d="M107.559 110.602C110.749 114.409 113.544 119.216 116.137 123.023C114.156 126.106 114.992 130.434 114.992 130.434C114.992 130.434 107.13 135.636 101.585 135.739L101.316 135.105L102.102 108.542C102.102 108.542 106.716 109.592 107.561 110.602H107.559Z" fill="#0B61DD"/>
<path d="M96.1167 138.372C96.6 139.105 100.131 137.043 101.583 135.741C102.147 134.988 100.326 118.82 103.114 109.161C105.533 100.781 107.449 87.3912 108.114 81.144C108.966 73.1445 99.9879 61.8094 92.017 73.173L96.1167 138.372Z" fill="white"/>
<path d="M92.0837 110.042C92.386 113.963 91.3123 138.386 96.1167 138.372C96.681 137.619 93.9312 127.677 96.6262 112.656C99.8808 94.5217 100.381 86.227 101.047 79.9773C101.9 71.9778 97.6571 66.3257 93.4455 72.1944C89.5981 77.556 90.6409 91.3243 92.0837 110.04V110.042Z" fill="#2E353D"/>
<path d="M110.985 104.49C110.882 104.49 110.778 104.464 110.68 104.412C110.38 104.243 110.271 103.864 110.44 103.562C110.459 103.529 111.637 101.331 111.575 97.4146C111.57 97.0694 111.844 96.7861 112.189 96.7789C112.542 96.7718 112.818 97.048 112.825 97.3932C112.894 101.683 111.587 104.069 111.532 104.169C111.418 104.374 111.206 104.488 110.987 104.488L110.985 104.49Z" fill="white"/>
<path d="M114.058 107.249C113.987 107.249 113.916 107.237 113.844 107.211C113.52 107.092 113.351 106.735 113.47 106.411C113.475 106.397 113.992 104.971 114.282 103.595C114.354 103.257 114.685 103.042 115.023 103.114C115.361 103.185 115.575 103.516 115.504 103.854C115.194 105.318 114.665 106.776 114.644 106.837C114.551 107.092 114.313 107.249 114.056 107.249H114.058Z" fill="white"/>
<path d="M117.444 108.897C117.354 108.897 117.261 108.878 117.173 108.835C116.863 108.685 116.732 108.311 116.882 108.002C116.884 107.995 117.204 107.333 117.47 106.447C117.57 106.116 117.918 105.93 118.249 106.03C118.58 106.13 118.765 106.478 118.665 106.809C118.368 107.792 118.02 108.516 118.006 108.545C117.899 108.768 117.675 108.897 117.444 108.897Z" fill="white"/>
<path d="M133.979 131.567C133.369 131.567 132.743 131.522 132.1 131.427C125.572 130.456 118.184 124.204 118.851 109.788C118.856 109.683 118.887 109.585 118.937 109.5C118.38 109.285 117.811 109.073 117.227 108.859C116.904 108.74 116.737 108.381 116.856 108.057C116.975 107.733 117.335 107.566 117.658 107.685C126.605 110.964 133.21 114.471 137.286 118.111C140.702 121.163 142.212 124.301 141.535 126.946C140.814 129.775 137.769 131.565 133.979 131.565V131.567ZM120.096 109.95C119.508 123.458 126.286 129.296 132.286 130.189C136.205 130.772 139.662 129.246 140.326 126.639C141.321 122.737 136.431 116.404 120.099 109.95H120.096Z" fill="white"/>
<path d="M119.887 147.643C119.82 147.643 119.754 147.633 119.687 147.609C114.77 145.943 111.556 143.193 110.133 139.434C106.942 131.013 113.449 119.632 116.947 113.519C117.873 111.9 118.83 110.224 118.854 109.819C118.849 109.474 119.125 109.193 119.47 109.188C119.818 109.176 120.099 109.462 120.104 109.807C120.113 110.469 119.475 111.614 118.032 114.14C114.637 120.075 108.321 131.122 111.302 138.991C112.587 142.384 115.544 144.886 120.089 146.426C120.415 146.538 120.592 146.893 120.48 147.219C120.392 147.478 120.149 147.643 119.887 147.643Z" fill="white"/>
<path d="M243.684 201.655C245.067 196.284 242.158 187.318 242.158 187.318C242.158 187.318 240.965 187.411 239.589 183.711C237.653 178.502 233.718 171 223.673 177.502C222.069 180.65 219.109 183.423 214.981 183.664C212.643 183.802 197.006 172.236 190.247 180.407C184.745 187.059 225.654 200.672 225.654 200.672L243.684 201.655Z" fill="#3984FF"/>
<path d="M226.669 191.095C231.216 189.031 240.796 186.193 240.796 186.193C241.506 187.288 242.156 187.319 242.156 187.319C242.156 187.319 245.065 196.285 243.682 201.656L242.999 201.747L223.224 195.804C223.224 195.804 225.469 191.64 226.669 191.095Z" fill="#0B61DD"/>
<path d="M244.756 207.627C245.591 207.358 244.548 203.403 243.682 201.656C243.108 200.91 232.652 200.261 224.09 194.989C216.662 190.416 204.977 183.116 199.134 180.804C191.656 177.843 177.629 185.333 186.445 196.054L244.753 207.624L244.756 207.627Z" fill="white"/>
<path d="M221.988 205.856C225.847 206.613 243.482 212.26 244.756 207.627C244.182 206.882 233.497 206.141 225.726 202.177C217.955 198.213 201.965 189.619 196.123 187.304C188.645 184.343 181.359 188.792 185.885 194.418C190.023 199.558 203.567 202.237 221.988 205.856Z" fill="#2E353D"/>
<path d="M223.052 188.105C222.916 188.105 222.778 188.059 222.664 187.969C222.621 187.936 218.279 184.519 214.419 183.512C214.086 183.424 213.886 183.083 213.972 182.75C214.06 182.417 214.4 182.217 214.733 182.303C218.852 183.376 223.254 186.84 223.44 186.988C223.712 187.202 223.757 187.595 223.542 187.867C223.419 188.021 223.238 188.105 223.052 188.105Z" fill="white"/>
<path d="M228.747 185.059C228.626 185.059 228.502 185.024 228.395 184.95C228.345 184.917 223.331 181.522 219.924 182.067C219.583 182.122 219.262 181.888 219.207 181.548C219.152 181.207 219.383 180.886 219.726 180.831C223.626 180.205 228.878 183.764 229.102 183.917C229.387 184.112 229.459 184.5 229.264 184.786C229.142 184.962 228.947 185.057 228.747 185.057V185.059Z" fill="white"/>
<path d="M232.716 181.909C232.623 181.909 232.528 181.888 232.437 181.845C232.366 181.81 225.326 178.348 221.99 179.652C221.669 179.779 221.307 179.619 221.181 179.298C221.055 178.976 221.214 178.614 221.536 178.488C225.385 176.984 232.685 180.574 232.994 180.726C233.304 180.881 233.43 181.255 233.275 181.564C233.166 181.783 232.944 181.912 232.716 181.912V181.909Z" fill="white"/>
<path d="M234.437 180.605C232.501 180.605 230.421 180.464 228.187 180.159C227.845 180.112 227.607 179.798 227.652 179.457C227.697 179.117 228.016 178.874 228.354 178.921C243.656 181.002 249.881 175.355 251.148 171.691C251.896 169.527 251.284 167.553 249.55 166.534C245.951 164.422 237.784 166.398 226.618 178.919C226.388 179.176 225.995 179.2 225.735 178.969C225.478 178.741 225.454 178.345 225.685 178.086C230.992 172.134 236.025 168.072 240.644 166.01C244.484 164.296 247.87 164.099 250.181 165.456C252.426 166.772 253.269 169.379 252.329 172.098C250.76 176.636 244.71 180.602 234.435 180.602L234.437 180.605Z" fill="white"/>
<path d="M150.671 153.759C146.785 153.759 142.809 153.43 138.781 152.773C125.932 150.671 113.666 145.385 103.309 137.493C93.543 130.051 85.903 120.473 81.2176 109.799C75.9655 97.8335 74.3323 84.658 76.3631 70.6422C78.1678 58.1977 82.8175 46.7008 90.1837 36.468C97.2262 26.6877 106.357 18.5762 117.323 12.3599C129.603 5.39843 143.726 1.22487 158.163 0.296354C173.51 -0.691683 188.609 1.86055 203.044 7.884C227.354 18.0286 240.737 34.0301 247.686 45.6699C249.462 48.6435 250.967 51.5695 252.234 54.4146C258.536 50.5767 265.692 47.7412 273.556 45.9722C286.175 43.1343 300.188 43.201 314.082 46.1651C328.479 49.2363 342.547 55.4098 354.763 64.014C355.047 64.2116 355.113 64.6021 354.913 64.8854C354.713 65.1687 354.325 65.2354 354.042 65.0354C329.865 48.0031 299.879 41.332 273.83 47.1912C266.038 48.9435 258.938 51.7957 252.748 55.5955C257.686 67.2043 258.626 77.3609 257.586 83.7605C255.503 96.5669 249.408 99.9214 245.96 100.781C241.251 101.955 236.049 99.8738 232.704 95.4788C228.354 89.7601 228.218 81.9963 232.342 74.7039C236.506 67.34 242.291 61.0999 249.534 56.155C250.058 55.7978 250.589 55.4479 251.124 55.105C243.789 38.3941 228.673 19.9309 202.563 9.03631C174.845 -2.52967 143.212 -0.882153 117.939 13.4456C95.7644 26.0186 81.0605 46.9293 77.5988 70.8208C73.8252 96.8645 83.4698 120.804 104.064 136.498C125.015 152.464 153.218 157.013 174.245 147.816C186.119 142.624 200.799 130.843 203.408 104.226L200.768 100.081C200.582 99.7905 200.668 99.4024 200.958 99.2191C201.249 99.0334 201.637 99.1191 201.82 99.4096L204.577 103.735C204.651 103.852 204.684 103.993 204.672 104.131C203.608 115.306 200.287 124.925 194.799 132.715C189.749 139.883 183.002 145.35 174.745 148.961C167.467 152.145 159.294 153.759 150.668 153.759H150.671ZM251.636 56.2954C243.963 61.2356 237.754 67.6757 233.432 75.3181C229.564 82.1606 229.664 89.4125 233.701 94.7194C236.742 98.7167 241.437 100.619 245.66 99.5643C248.81 98.7786 254.386 95.655 256.355 83.5557C257.426 76.9728 256.143 67.0448 251.639 56.2931L251.636 56.2954Z" fill="#0B61DD"/>
<path d="M170.591 64.5259H178.336C179.409 64.5259 180.419 65.0449 181.043 65.921L204.753 99.2024C204.965 99.5 204.958 99.9 204.737 100.188L203.922 101.248L195.342 99.3738L170.274 66.6567V64.8449C170.274 64.6687 170.417 64.5259 170.593 64.5259H170.591Z" fill="#0B61DD"/>
<path d="M170.593 66.3135H177.891C178.964 66.3135 179.974 66.8325 180.598 67.7086L203.925 100.452C204.265 100.928 203.896 101.585 203.313 101.542L194.897 101.161L170.336 66.8182C170.186 66.6063 170.336 66.3135 170.596 66.3135H170.593Z" fill="#2E353D"/>
<path d="M172.496 69.0709L172.512 69.0971C172.941 69.8184 173.581 70.4041 173.943 70.4065L175.598 70.416C175.96 70.416 175.907 69.8351 175.479 69.1137L175.462 69.0875C175.034 68.3661 174.393 67.7805 174.031 67.7781L172.377 67.7686C172.015 67.7686 172.067 68.3495 172.496 69.0709ZM172.81 69.0852C172.519 68.5971 172.484 68.2019 172.729 68.2019C172.974 68.2019 173.407 68.5995 173.698 69.0899C173.988 69.578 174.024 69.9732 173.779 69.9732C173.534 69.9732 173.1 69.5756 172.81 69.0852Z" fill="#0B61DD"/>
<path d="M175.209 69.6529C175.317 69.5745 175.225 69.2601 175.002 68.9508C174.779 68.6415 174.51 68.4543 174.401 68.5328C174.292 68.6112 174.385 68.9255 174.608 69.2349C174.831 69.5442 175.1 69.7313 175.209 69.6529Z" fill="white"/>
<path d="M354.674 61.3678C357.116 60.6508 358.844 59.2094 358.532 58.1483C358.221 57.0873 355.988 56.8084 353.546 57.5254C351.103 58.2425 349.376 59.6839 349.687 60.7449C349.999 61.806 352.231 62.0849 354.674 61.3678Z" fill="#D83A21"/>
<path d="M334.719 96.8307C333.667 91.0311 348.614 61.1233 390.104 81.3721C390.104 81.3721 384.823 64.4517 381.043 62.2542C377.262 60.0567 365.913 56.145 355.073 58.8234C344.233 61.5042 335.557 72.8202 333.974 75.9605C331.236 81.3864 334.719 96.8283 334.719 96.8283V96.8307Z" fill="#FA6142"/>
<path d="M366.256 74.4895C372.898 74.849 380.712 76.8322 389.807 81.2319L390.023 81.1248C389.357 79.0368 384.552 64.2948 381.04 62.2568C379.705 70.4825 368.896 74.7132 366.253 74.4918L366.256 74.4895Z" fill="#D83A21"/>
<path d="M343.028 81.9246C341.214 68.8492 348.711 61.5663 353.29 59.3545C351.285 60.033 349.368 60.9877 347.573 62.1043C346.361 63.3923 345.281 64.8756 344.39 66.4945C341.778 71.2443 340.928 76.932 341.924 82.9483C342.278 82.6031 342.647 82.2603 343.031 81.9246H343.028Z" fill="#D83A21"/>
<path d="M371.239 75.0374C371.239 75.0374 407.308 72.3804 408.541 72.3828C406.175 72.3828 396.068 84.0131 389.111 83.3703C384.559 82.9489 378.436 76.4326 371.239 75.035V75.0374Z" fill="#D83A21"/>
<path d="M371.239 75.0374C371.239 75.0374 389.871 72.5138 408.541 72.3828C404.31 73.7042 393.092 82.8322 388.63 81.8323C384.169 80.8323 378.433 76.4326 371.239 75.0374Z" fill="#FA6142"/>
<path d="M351.468 94.5807C351.468 94.5807 351.702 83.598 346.416 82.091C333.727 78.4697 334.353 100.207 340.471 104.749C342.431 106.204 344.633 105.251 344.633 105.251L351.468 94.5783V94.5807Z" fill="#E27960"/>
<path d="M347.897 94.2167C347.309 90.1598 344.404 89.4027 342.902 91.3121C340.976 93.7619 342.6 101.857 347.099 101.102L348.03 97.3641L347.897 94.2167Z" fill="#CE5F49"/>
<path d="M340.471 104.749C337.979 102.897 336.398 98.1875 336.257 93.5044C336.688 103.073 345.052 103.468 347.007 101.544L344.631 105.251C344.631 105.251 342.428 106.204 340.469 104.749H340.471Z" fill="#FFAD94"/>
<path d="M345.821 85.3076C344.116 82.9077 340.709 82.7911 338.955 83.7982C340.593 81.9626 343.238 80.5674 346.7 81.903C350.737 83.4625 351.706 90.7478 351.792 93.6357C351.359 95.3237 349.688 98.5544 347.007 101.542C347.933 97.0855 348.885 90.6906 345.821 85.3076Z" fill="#FFAD94"/>
<path d="M350.954 68.7226C351.502 69.094 351.899 69.7368 351.985 70.5035C352.128 71.7962 351.323 72.9462 350.187 73.0723C349.868 73.1081 349.559 73.0557 349.271 72.9366C349.647 73.1938 350.092 73.3223 350.557 73.27C351.692 73.1438 352.497 71.9938 352.354 70.7011C352.252 69.7702 351.685 69.0226 350.954 68.7202V68.7226Z" fill="#D83A21"/>
<path d="M350.033 71.7894C350.516 71.736 350.857 71.2329 350.795 70.6657C350.732 70.0985 350.289 69.682 349.806 69.7354C349.322 69.7888 348.981 70.2918 349.044 70.8591C349.106 71.4263 349.549 71.8428 350.033 71.7894Z" fill="#2E353D"/>
<path d="M338.976 79.3345C338.741 78.3083 338.131 77.5227 337.519 77.3774C338.01 77.675 338.452 78.3583 338.648 79.1988C338.929 80.4106 338.581 81.4915 337.874 81.6153C337.764 81.6343 337.652 81.6272 337.543 81.601C337.76 81.7343 337.986 81.7915 338.202 81.7534C338.91 81.632 339.257 80.5487 338.976 79.3368V79.3345Z" fill="#D83A21"/>
<path d="M337.647 80.5363C337.993 80.4462 338.146 79.8852 337.989 79.2833C337.833 78.6815 337.425 78.2666 337.079 78.3568C336.733 78.4469 336.579 79.0079 336.736 79.6098C336.893 80.2116 337.3 80.6265 337.647 80.5363Z" fill="#2E353D"/>
<path d="M341.633 108.488C342.863 108.488 343.859 107.491 343.859 106.262C343.859 105.032 342.863 104.036 341.633 104.036C340.404 104.036 339.407 105.032 339.407 106.262C339.407 107.491 340.404 108.488 341.633 108.488Z" fill="#FCD738"/>
<path d="M362.458 121.682L359.675 123.767C359.649 123.753 359.623 123.736 359.596 123.724C358.185 123.034 356.478 123.62 355.787 125.031C355.294 126.041 355.454 127.198 356.099 128.029C356.099 128.029 356.106 128.036 356.109 128.041C356.366 128.369 356.697 128.646 357.094 128.841C357.197 128.891 357.299 128.931 357.401 128.967C360.568 130.367 363.734 125.827 362.458 121.682Z" fill="#2E353D"/>
<path d="M355.528 125.886C355.421 126.65 355.628 127.427 356.097 128.029C356.097 128.029 356.104 128.036 356.106 128.041C356.363 128.369 356.694 128.646 357.092 128.841C357.194 128.891 357.297 128.931 357.399 128.967C357.911 129.193 358.423 129.262 358.916 129.205C358.785 126.838 356.337 126.019 355.528 125.884V125.886Z" fill="#CE5F49"/>
<path d="M382.676 149.456C382.359 149.456 382.086 149.216 382.055 148.892C381.395 142.164 372.672 136.733 363.434 130.983C354.059 125.148 344.364 119.113 342.2 111.013C342.112 110.68 342.309 110.337 342.643 110.249C342.974 110.161 343.319 110.358 343.407 110.692C345.443 118.313 354.923 124.215 364.094 129.924C373.6 135.843 382.579 141.43 383.298 148.773C383.331 149.116 383.081 149.423 382.736 149.456C382.714 149.456 382.695 149.459 382.674 149.459L382.676 149.456Z" fill="#FCD738"/>
<path d="M324.187 92.4195C324.31 92.5623 324.484 92.6361 324.66 92.6361C324.806 92.6361 324.951 92.5861 325.068 92.4837C325.329 92.2576 325.358 91.8624 325.132 91.6029C320.32 86.0318 282.13 74.011 280.506 73.5015C280.48 73.4944 280.456 73.4896 280.43 73.4849C280.37 73.8825 280.287 74.292 280.177 74.7086C281.706 75.1895 319.677 87.196 324.187 92.4195Z" fill="#6F8137"/>
<path d="M188.764 242.756H174.831C141.674 242.756 106.126 237.778 77.3013 229.095C63.464 224.928 51.7218 220.014 43.3414 214.884C34.3228 209.363 29.1755 203.689 28.0446 198.016C26.9637 192.587 28.178 187.783 31.6587 183.736C46.6388 166.315 100.395 166.856 122.81 167.896C123.156 167.913 123.422 168.206 123.406 168.548C123.389 168.894 123.096 169.158 122.753 169.144C100.521 168.113 47.2292 167.546 32.6086 184.55C29.3922 188.29 28.2708 192.737 29.2731 197.77C31.3683 208.284 49.0077 219.264 77.6655 227.895C106.378 236.542 141.795 241.501 174.834 241.501H188.766C189.111 241.501 189.39 241.78 189.39 242.125C189.39 242.47 189.109 242.749 188.766 242.749L188.764 242.756Z" fill="#ABBD43"/>
<path d="M148.259 249.163C148.259 249.163 148.237 249.163 148.226 249.163C117.108 247.572 83.4079 241.763 55.7619 233.223C26.1375 224.071 7.2029 212.938 2.44842 201.875C-0.127619 195.88 0.239028 190.356 3.54359 185.457C10.5265 175.095 29.5373 169.42 44.2579 166.482C60.7378 163.191 78.9963 161.92 88.9862 162.134C89.3314 162.141 89.6052 162.427 89.5981 162.772C89.5909 163.118 89.3124 163.399 88.96 163.384C70.7849 162.999 17.0357 167.679 4.58163 186.154C1.53181 190.68 1.20087 195.804 3.59835 201.382C8.2076 212.103 26.8637 222.988 56.1334 232.03C83.6841 240.542 117.275 246.332 148.292 247.915C148.637 247.932 148.902 248.227 148.885 248.572C148.868 248.905 148.592 249.165 148.261 249.165L148.259 249.163Z" fill="#ABBD43"/>
<path d="M32.8537 189.84C32.5204 189.84 32.2442 189.575 32.23 189.24C31.9086 181.364 29.5444 175.688 25.2066 172.374C19.1117 167.717 10.6265 168.757 6.11007 169.793C5.77438 169.869 5.43869 169.66 5.36012 169.324C5.28393 168.988 5.49345 168.653 5.82914 168.574C10.5574 167.491 19.4617 166.412 25.9637 171.379C30.611 174.929 33.1394 180.921 33.4775 189.185C33.4918 189.53 33.2228 189.821 32.8775 189.835C32.868 189.835 32.8609 189.835 32.8514 189.835L32.8537 189.84Z" fill="#ABBD43"/>
<path d="M35.7108 193.106C35.6584 193.106 35.6036 193.099 35.5513 193.085C35.218 192.997 35.018 192.656 35.1061 192.321C37.2059 184.333 36.6822 177.55 33.5919 172.71C31.0015 168.651 27.0708 166.663 24.2543 166.155C23.9139 166.094 23.6877 165.77 23.7496 165.429C23.8115 165.089 24.1353 164.865 24.4757 164.925C27.5517 165.477 31.8372 167.636 34.6442 172.036C37.9249 177.179 38.5035 184.302 36.3131 192.637C36.2393 192.918 35.987 193.104 35.7084 193.104L35.7108 193.106Z" fill="#ABBD43"/>
<path d="M95.1644 222.702C95.1263 222.702 95.0858 222.7 95.0477 222.69C84.0912 220.61 73.8347 214.717 73.7323 214.658C73.4347 214.484 73.3323 214.103 73.5037 213.803C73.6775 213.503 74.0585 213.403 74.3584 213.574C74.4584 213.634 84.5388 219.422 95.281 221.46C95.6191 221.524 95.8429 221.85 95.7786 222.19C95.7215 222.49 95.4596 222.7 95.1644 222.7V222.702Z" fill="#ABBD43"/>
<path d="M128.758 227.099C128.734 227.099 128.713 227.099 128.689 227.095C128.517 227.076 111.502 225.157 98.2357 219.743C97.9167 219.612 97.762 219.247 97.8929 218.928C98.0239 218.609 98.3881 218.457 98.7072 218.586C111.814 223.935 128.655 225.833 128.824 225.852C129.167 225.89 129.415 226.199 129.377 226.542C129.341 226.861 129.07 227.099 128.755 227.099H128.758Z" fill="#ABBD43"/>
<path d="M144.526 202.21C201.773 194.294 245.108 190.287 245.108 190.287C245.108 190.287 252.753 183.949 260.91 182.573C268.785 181.245 295.284 189.494 297.5 199.103C299.555 208.005 279.285 221.052 269.035 222.959C258.786 224.866 219.067 225.214 219.067 225.214L155.271 224.814L142.169 220.285L132.567 213.831C132.567 213.831 120.196 203.236 123.28 200.682C126.363 198.127 140.786 202.727 144.528 202.21H144.526Z" fill="#84B8FF"/>
<path d="M144.526 204.594C201.773 196.678 245.108 192.671 245.108 192.671C245.108 192.671 252.753 186.333 260.91 184.957C268.785 183.628 295.284 191.878 297.5 201.487C299.555 210.389 279.285 223.436 269.035 225.343C258.786 227.25 219.067 227.597 219.067 227.597L155.271 227.197L142.169 222.669L132.567 216.215C132.567 216.215 120.196 205.62 123.28 203.065C126.363 200.511 140.786 205.111 144.528 204.594H144.526Z" fill="#0B61DD"/>
<path d="M181.295 199.775C169.143 201.311 159.234 202.56 144.526 204.596C140.783 205.113 126.36 200.513 123.277 203.068C120.194 205.622 132.565 216.217 132.565 216.217L142.166 222.671L155.268 227.199L219.064 227.599C219.064 227.599 237.42 227.44 252.396 226.738L181.295 199.775Z" fill="#2E353D"/>
<path d="M141.935 194.161C142.902 194.161 143.685 193.377 143.685 192.411C143.685 191.445 142.902 190.661 141.935 190.661C140.969 190.661 140.186 191.445 140.186 192.411C140.186 193.377 140.969 194.161 141.935 194.161Z" fill="#2E353D"/>
<path d="M82.4699 160.008C83.3903 160.008 84.1365 159.262 84.1365 158.341C84.1365 157.421 83.3903 156.675 82.4699 156.675C81.5495 156.675 80.8033 157.421 80.8033 158.341C80.8033 159.262 81.5495 160.008 82.4699 160.008Z" fill="#2E353D"/>
<path d="M253.584 211.878L248.784 214.316L248.263 225.213L251.715 226.454L253.584 211.878Z" fill="#0B61DD"/>
<path d="M251.715 226.454L253.584 211.878L262.993 216.588L256.772 228.37L251.715 226.454Z" fill="#84B8FF"/>
<path d="M211.567 223.666C211.496 223.666 211.424 223.654 211.355 223.628C211.265 223.595 211.15 223.554 211.017 223.509C203.394 220.828 198.482 217.378 196.418 213.257C196.263 212.948 196.389 212.574 196.697 212.419C197.006 212.264 197.38 212.391 197.535 212.698C199.449 216.519 204.125 219.759 211.431 222.331C211.57 222.378 211.686 222.421 211.779 222.454C212.103 222.571 212.272 222.931 212.155 223.254C212.062 223.509 211.824 223.666 211.567 223.666Z" fill="white"/>
<path d="M282.13 226.406L273.225 223.209L266.166 242.872L275.071 246.07C277.989 247.117 281.937 243.565 283.887 238.137C285.837 232.706 285.048 227.454 282.13 226.406Z" fill="#232A2B"/>
<path d="M270.159 240.551L280.227 244.165C281.672 242.727 282.991 240.629 283.887 238.134C284.646 236.02 284.989 233.932 284.953 232.108L274.532 228.368L270.159 240.551Z" fill="#2E353D"/>
<path d="M274.987 234.955C276.937 229.525 276.151 224.273 273.232 223.225C270.312 222.176 266.365 225.729 264.416 231.159C262.466 236.59 263.252 241.841 266.171 242.89C269.091 243.938 273.038 240.385 274.987 234.955Z" fill="#232A2B"/>
<path d="M269.509 233.961C269.397 233.961 269.285 233.942 269.173 233.901L220.369 216.255C219.857 216.069 219.593 215.505 219.776 214.993C219.962 214.481 220.526 214.217 221.038 214.4L269.842 232.047C270.354 232.232 270.618 232.796 270.435 233.308C270.29 233.711 269.911 233.958 269.509 233.958V233.961Z" fill="#84B8FF"/>
<path d="M233.14 208.693L224.235 205.496L217.176 225.159L226.08 228.356C228.999 229.404 232.947 225.852 234.897 220.423C236.847 214.993 236.058 209.741 233.14 208.693Z" fill="#232A2B"/>
<path d="M221.167 222.84L231.235 226.454C232.68 225.016 233.999 222.918 234.894 220.423C235.654 218.309 235.997 216.221 235.961 214.398L225.54 210.657L221.167 222.84Z" fill="#2E353D"/>
<path d="M225.996 217.241C227.946 211.81 227.16 206.558 224.24 205.51C221.321 204.462 217.374 208.015 215.424 213.445C213.474 218.875 214.26 224.127 217.18 225.175C220.099 226.223 224.046 222.671 225.996 217.241Z" fill="#232A2B"/>
<path d="M222.086 215.836C222.578 214.464 222.362 213.13 221.602 212.857C220.842 212.585 219.827 213.476 219.334 214.848C218.841 216.221 219.058 217.555 219.818 217.827C220.578 218.1 221.593 217.209 222.086 215.836Z" fill="#84B8FF"/>
<path d="M271.077 233.551C271.57 232.178 271.354 230.845 270.594 230.572C269.834 230.299 268.818 231.19 268.326 232.563C267.833 233.935 268.049 235.269 268.809 235.542C269.569 235.815 270.585 234.923 271.077 233.551Z" fill="#84B8FF"/>
<path d="M155.968 215.603L152.199 217.517L151.79 226.073L154.501 227.047L155.968 215.603Z" fill="#2E353D"/>
<path d="M154.501 227.047L155.968 215.603L163.358 219.3L158.473 228.554L154.501 227.047Z" fill="#84B8FF"/>
<path d="M177.717 227.052L170.912 224.609L165.517 239.635L172.322 242.077C174.553 242.877 177.569 240.163 179.057 236.016C180.548 231.866 179.945 227.854 177.714 227.054L177.717 227.052Z" fill="#232A2B"/>
<path d="M168.57 237.861L176.262 240.622C177.367 239.525 178.374 237.923 179.057 236.016C179.638 234.399 179.9 232.804 179.871 231.411L171.908 228.552L168.567 237.858L168.57 237.861Z" fill="#2E353D"/>
<path d="M172.258 233.587C173.748 229.437 173.147 225.424 170.915 224.623C168.684 223.822 165.668 226.536 164.178 230.685C162.688 234.835 163.289 238.848 165.52 239.649C167.752 240.45 170.768 237.736 172.258 233.587Z" fill="#232A2B"/>
<path d="M168.074 232.825C167.991 232.825 167.905 232.811 167.82 232.78L131.2 219.671C130.81 219.531 130.605 219.1 130.746 218.71C130.886 218.319 131.317 218.114 131.707 218.255L168.327 231.364C168.717 231.504 168.922 231.935 168.781 232.325C168.672 232.632 168.381 232.825 168.072 232.825H168.074Z" fill="#84B8FF"/>
<path d="M140.955 213.892L134.15 211.45L128.755 226.475L135.56 228.918C137.79 229.718 140.807 227.004 142.295 222.856C143.785 218.706 143.183 214.695 140.952 213.895L140.955 213.892Z" fill="#232A2B"/>
<path d="M131.807 224.702L139.5 227.464C140.605 226.366 141.612 224.764 142.295 222.857C142.876 221.24 143.138 219.645 143.109 218.252L135.145 215.393L131.805 224.7L131.807 224.702Z" fill="#2E353D"/>
<path d="M135.495 220.425C136.985 216.275 136.384 212.262 134.153 211.461C131.921 210.66 128.905 213.374 127.415 217.524C125.925 221.673 126.526 225.687 128.758 226.488C130.989 227.289 134.005 224.574 135.495 220.425Z" fill="#232A2B"/>
<path d="M132.506 219.352C132.883 218.303 132.718 217.283 132.137 217.075C131.557 216.866 130.781 217.548 130.404 218.597C130.027 219.647 130.193 220.666 130.773 220.875C131.353 221.083 132.129 220.401 132.506 219.352Z" fill="#84B8FF"/>
<path d="M169.269 232.514C169.646 231.464 169.481 230.445 168.9 230.236C168.32 230.028 167.544 230.71 167.167 231.759C166.79 232.808 166.955 233.828 167.536 234.036C168.116 234.245 168.892 233.563 169.269 232.514Z" fill="#84B8FF"/>
<path d="M129.581 227.292C129.22 227.292 128.867 227.232 128.529 227.111C128.177 226.985 127.996 226.599 128.122 226.247C128.248 225.894 128.636 225.713 128.986 225.839C129.808 226.135 130.889 225.756 131.953 224.799C133.143 223.728 134.176 222.09 134.86 220.185C136.198 216.457 135.769 212.75 133.924 212.088C133.574 211.962 133.391 211.574 133.517 211.224C133.643 210.871 134.029 210.69 134.381 210.817C137.002 211.757 137.771 216.073 136.131 220.642C135.374 222.752 134.212 224.585 132.857 225.804C131.767 226.785 130.636 227.294 129.584 227.294L129.581 227.292Z" fill="white"/>
<path d="M218.255 225.971C217.81 225.971 217.379 225.897 216.964 225.749C216.641 225.633 216.472 225.275 216.588 224.949C216.705 224.625 217.062 224.454 217.388 224.573C218.574 224.999 220.045 224.497 221.531 223.159C223.121 221.728 224.497 219.547 225.404 217.016C226.311 214.486 226.638 211.926 226.321 209.812C226.026 207.836 225.209 206.512 224.023 206.086C223.7 205.969 223.531 205.612 223.647 205.286C223.764 204.962 224.123 204.793 224.447 204.91C226.085 205.498 227.192 207.174 227.559 209.626C227.907 211.943 227.559 214.717 226.583 217.438C225.607 220.159 224.109 222.521 222.369 224.087C220.99 225.328 219.571 225.971 218.257 225.971H218.255Z" fill="white"/>
<path d="M88.9694 211.615C90.1738 211.615 91.1502 210.638 91.1502 209.434C91.1502 208.229 90.1738 207.253 88.9694 207.253C87.765 207.253 86.7886 208.229 86.7886 209.434C86.7886 210.638 87.765 211.615 88.9694 211.615Z" fill="#2E353D"/>
<path d="M46.3982 205.675C48.2785 205.675 49.8028 204.151 49.8028 202.27C49.8028 200.39 48.2785 198.866 46.3982 198.866C44.5179 198.866 42.9937 200.39 42.9937 202.27C42.9937 204.151 44.5179 205.675 46.3982 205.675Z" fill="#2E353D"/>
<path d="M239.039 242.334C240.92 242.334 242.444 240.81 242.444 238.929C242.444 237.049 240.92 235.525 239.039 235.525C237.159 235.525 235.635 237.049 235.635 238.929C235.635 240.81 237.159 242.334 239.039 242.334Z" fill="#2E353D"/>
<path d="M61.1473 250.114C62.0191 250.114 62.7258 249.408 62.7258 248.536C62.7258 247.664 62.0191 246.958 61.1473 246.958C60.2756 246.958 59.5688 247.664 59.5688 248.536C59.5688 249.408 60.2756 250.114 61.1473 250.114Z" fill="#2E353D"/>
<path d="M359.942 247.182H225.783C225.438 247.182 225.159 246.903 225.159 246.558C225.159 246.213 225.44 245.934 225.783 245.934H359.942C360.287 245.934 360.565 246.213 360.565 246.558C360.565 246.903 360.287 247.182 359.942 247.182Z" fill="#ABBD43"/>
<path d="M120.644 257C120.299 257 120.02 256.722 120.02 256.377C120.02 256.031 120.299 255.75 120.644 255.75L336.276 255.5C336.622 255.5 336.9 255.779 336.9 256.124C336.9 256.469 336.622 256.75 336.276 256.75L120.644 257Z" fill="#ABBD43"/>
<path d="M476.323 247.182H387.414C387.069 247.182 386.79 246.903 386.79 246.558C386.79 246.213 387.069 245.934 387.414 245.934H476.323C476.668 245.934 476.947 246.213 476.947 246.558C476.947 246.903 476.668 247.182 476.323 247.182Z" fill="#ABBD43"/>
<path d="M246.734 206.186C243.941 206.186 241.56 204.777 239.499 201.922C237.327 198.915 235.832 194.782 234.387 190.787C232.537 185.673 230.787 180.845 228.116 180.145C227.783 180.057 227.583 179.716 227.668 179.383C227.756 179.05 228.097 178.85 228.43 178.938C231.74 179.804 233.511 184.697 235.561 190.363C238.415 198.249 241.368 206.4 248.62 204.708C248.955 204.629 249.291 204.839 249.369 205.174C249.448 205.51 249.239 205.846 248.903 205.924C248.153 206.098 247.429 206.186 246.732 206.186H246.734Z" fill="white"/>
<path d="M322.282 246.182C322.282 246.151 322.292 246.123 322.292 246.092V246.018C322.292 246.018 322.292 245.999 322.292 245.963C322.292 245.954 322.292 245.946 322.292 245.934C322.292 245.934 322.289 245.934 322.287 245.932C322.287 245.846 322.306 245.644 322.334 245.404C322.389 244.913 322.487 244.194 322.649 243.332C322.965 241.611 323.534 239.318 324.42 237.142C324.646 236.602 324.882 236.061 325.144 235.547C325.272 235.287 325.403 235.033 325.546 234.788C325.679 234.538 325.827 234.299 325.972 234.064C326.26 233.595 326.57 233.161 326.882 232.759C327.196 232.361 327.515 232.004 327.829 231.688C328.146 231.378 328.448 231.1 328.739 230.883C329.02 230.65 329.294 230.488 329.51 230.338C329.732 230.195 329.92 230.107 330.041 230.035C330.165 229.966 330.232 229.931 330.232 229.931C330.232 229.931 330.16 229.957 330.027 230.002C329.896 230.052 329.691 230.112 329.448 230.216C329.208 230.328 328.903 230.447 328.579 230.638C328.246 230.812 327.891 231.042 327.51 231.309C327.134 231.581 326.741 231.897 326.346 232.259C325.956 232.623 325.556 233.023 325.175 233.466C324.982 233.685 324.789 233.911 324.606 234.149C324.415 234.383 324.234 234.628 324.053 234.876C323.689 235.371 323.351 235.895 323.02 236.423C321.718 238.554 320.73 240.856 320.094 242.625C319.773 243.508 319.542 244.263 319.387 244.806C319.308 245.082 319.256 245.289 319.213 245.482C319.177 245.706 319.156 245.825 319.156 245.825C319.144 245.904 319.135 245.994 319.135 246.077C319.135 246.111 319.142 246.142 319.144 246.175H322.282V246.182Z" fill="#ABBD43"/>
<path d="M178.557 235.449C178.652 235.618 178.726 235.818 178.821 236.023C178.912 236.228 179.009 236.447 179.112 236.678C179.162 236.792 179.214 236.911 179.269 237.03C179.319 237.152 179.359 237.282 179.407 237.411C179.497 237.671 179.593 237.942 179.693 238.223C179.743 238.363 179.793 238.504 179.843 238.649C179.883 238.797 179.926 238.947 179.969 239.099C180.136 239.709 180.328 240.339 180.459 241.018C180.531 241.354 180.605 241.694 180.678 242.037C180.735 242.385 180.795 242.737 180.855 243.094C180.988 243.799 181.047 244.534 181.145 245.253C181.209 245.982 181.285 246.708 181.324 247.427C181.366 248.146 181.404 248.851 181.416 249.536C181.443 250.22 181.438 250.886 181.447 251.513C181.443 252.143 181.443 252.736 181.428 253.289C181.4 254.408 181.378 255.339 181.362 255.991C181.362 256.06 181.362 256.127 181.359 256.188H184.797C184.78 256.072 184.764 255.941 184.745 255.793C184.664 255.148 184.55 254.224 184.411 253.12C184.34 252.56 184.25 251.951 184.159 251.308C184.054 250.665 183.959 249.986 183.826 249.286C183.707 248.587 183.561 247.865 183.404 247.137C183.257 246.406 183.064 245.67 182.888 244.934C182.676 244.203 182.502 243.468 182.257 242.761C182.143 242.406 182.028 242.054 181.914 241.706C181.785 241.363 181.659 241.025 181.533 240.692C181.297 240.023 181.002 239.401 180.738 238.809C180.671 238.661 180.607 238.516 180.543 238.37C180.469 238.23 180.395 238.094 180.324 237.959C180.181 237.69 180.043 237.43 179.912 237.18C179.845 237.056 179.783 236.932 179.714 236.816C179.643 236.702 179.571 236.59 179.502 236.48C179.364 236.263 179.233 236.056 179.112 235.863C178.986 235.673 178.883 235.487 178.762 235.33C178.64 235.173 178.531 235.03 178.431 234.899C178.033 234.383 177.805 234.087 177.805 234.087C177.805 234.087 177.986 234.414 178.302 234.98C178.381 235.121 178.469 235.278 178.562 235.449H178.557Z" fill="#ABBD43"/>
<path d="M175.234 188.102C175.472 188.549 175.736 189.042 176.022 189.583C176.307 190.121 176.626 190.697 176.919 191.34C177.222 191.975 177.545 192.652 177.883 193.363C178.193 194.09 178.521 194.851 178.862 195.649C178.948 195.849 179.033 196.049 179.119 196.251C179.198 196.458 179.279 196.666 179.357 196.877C179.519 197.299 179.681 197.727 179.848 198.163C180.195 199.03 180.495 199.946 180.817 200.884C181.15 201.818 181.443 202.791 181.745 203.787C182.062 204.777 182.336 205.806 182.619 206.846C183.188 208.929 183.69 211.105 184.157 213.324C184.393 214.434 184.588 215.56 184.807 216.683C184.995 217.814 185.195 218.95 185.366 220.088C185.704 222.366 186.012 224.647 186.238 226.902C186.485 229.154 186.654 231.378 186.807 233.528C186.938 235.68 187.045 237.763 187.097 239.739C187.164 241.715 187.178 243.584 187.185 245.308C187.183 248.755 187.092 251.627 187.007 253.636C186.959 254.646 186.923 255.441 186.897 255.981C186.897 256.034 186.892 256.081 186.89 256.129H190.395C190.395 256.103 190.395 256.084 190.395 256.057C190.395 255.512 190.395 254.715 190.392 253.7C190.383 251.658 190.335 248.734 190.171 245.237C190.08 243.487 189.973 241.594 189.811 239.594C189.661 237.594 189.452 235.49 189.216 233.316C188.959 231.145 188.68 228.902 188.321 226.633C187.983 224.362 187.559 222.069 187.109 219.781C186.878 218.638 186.623 217.5 186.378 216.367C186.102 215.238 185.85 214.11 185.557 213C184.978 210.781 184.366 208.608 183.69 206.532C183.355 205.494 183.028 204.47 182.662 203.487C182.309 202.496 181.967 201.53 181.586 200.603C181.217 199.675 180.869 198.765 180.479 197.911C180.29 197.48 180.105 197.056 179.921 196.642C179.831 196.435 179.74 196.228 179.65 196.025C179.552 195.825 179.457 195.628 179.362 195.43C178.981 194.647 178.617 193.894 178.269 193.18C177.893 192.48 177.538 191.816 177.203 191.192C176.879 190.564 176.531 189.999 176.219 189.473C175.907 188.947 175.619 188.466 175.36 188.028C174.812 187.173 174.362 186.516 174.065 186.061C173.765 185.609 173.605 185.369 173.605 185.369C173.605 185.369 173.753 185.619 174.031 186.085C174.307 186.554 174.722 187.233 175.229 188.109L175.234 188.102Z" fill="#ABBD43"/>
<path d="M190.614 256.365H194.137C194.149 256.236 194.151 256.108 194.137 255.974V255.946C194.137 255.946 194.118 255.824 194.092 255.598C194.087 255.524 194.078 255.432 194.071 255.324C194.066 255.175 194.063 255.001 194.059 254.805C194.051 254.006 194.099 252.803 194.213 251.353C194.442 248.453 194.94 244.558 195.747 240.725C195.944 239.766 196.168 238.814 196.404 237.878C196.639 236.942 196.899 236.03 197.168 235.152C197.447 234.278 197.727 233.435 198.035 232.652C198.185 232.259 198.337 231.878 198.496 231.516C198.649 231.15 198.811 230.805 198.973 230.476C199.292 229.814 199.618 229.224 199.937 228.719C200.087 228.459 200.251 228.233 200.401 228.024C200.546 227.809 200.689 227.617 200.83 227.457C200.968 227.293 201.087 227.14 201.199 227.017C201.318 226.898 201.418 226.798 201.499 226.714C201.663 226.55 201.751 226.462 201.751 226.462C201.751 226.462 201.653 226.54 201.472 226.683C201.382 226.757 201.27 226.845 201.137 226.952C201.011 227.067 200.875 227.202 200.715 227.355C200.553 227.502 200.389 227.679 200.218 227.879C200.042 228.076 199.849 228.286 199.668 228.531C199.287 229.007 198.887 229.569 198.487 230.207C198.285 230.524 198.08 230.857 197.885 231.212C197.68 231.562 197.48 231.931 197.285 232.314C196.882 233.076 196.501 233.9 196.118 234.759C195.744 235.621 195.375 236.521 195.03 237.442C194.682 238.366 194.347 239.311 194.037 240.264C192.78 244.073 191.83 247.97 191.254 250.949C190.968 252.439 190.773 253.701 190.675 254.629C190.654 254.867 190.635 255.079 190.621 255.265C190.614 255.494 190.609 255.686 190.602 255.844C190.602 256.079 190.604 256.205 190.604 256.205C190.604 256.258 190.609 256.313 190.614 256.365Z" fill="#ABBD43"/>
<path d="M293.189 246.182H297.124C296.988 245.544 296.819 244.806 296.617 243.961C295.946 241.154 294.922 237.213 293.741 232.476C291.379 223.007 288.405 210.337 286.496 197.48C285.544 191.057 284.856 184.59 284.639 178.507C284.53 175.467 284.53 172.524 284.663 169.739C284.799 166.956 285.065 164.33 285.453 161.927C285.841 159.525 286.356 157.352 286.951 155.464C287.546 153.578 288.203 151.976 288.851 150.709C288.998 150.385 289.179 150.1 289.327 149.819C289.484 149.542 289.613 149.276 289.767 149.045C290.067 148.581 290.301 148.171 290.529 147.864C290.977 147.245 291.215 146.914 291.215 146.914C291.215 146.914 290.965 147.235 290.493 147.838C290.255 148.138 290.005 148.538 289.686 148.993C289.522 149.216 289.382 149.481 289.215 149.752C289.055 150.028 288.865 150.309 288.703 150.628C288.003 151.878 287.282 153.466 286.608 155.345C285.937 157.225 285.332 159.401 284.849 161.813C284.363 164.225 283.994 166.868 283.749 169.675C283.508 172.482 283.394 175.453 283.389 178.526C283.375 184.674 283.822 191.221 284.534 197.73C285.968 210.756 288.479 223.624 290.486 233.216C291.489 238.013 292.365 241.999 292.917 244.768C293.019 245.282 293.112 245.753 293.191 246.177L293.189 246.182Z" fill="#ABBD43"/>
<path d="M294.248 208.693C294.398 208.962 294.562 209.26 294.741 209.584C294.919 209.907 295.088 210.272 295.281 210.653C295.476 211.031 295.664 211.446 295.855 211.886C295.953 212.105 296.053 212.329 296.153 212.557C296.25 212.788 296.343 213.029 296.441 213.272C296.638 213.757 296.838 214.264 297.022 214.8C297.117 215.067 297.212 215.336 297.312 215.61C297.4 215.888 297.491 216.169 297.583 216.455C297.957 217.595 298.286 218.817 298.605 220.083C298.762 220.716 298.902 221.366 299.05 222.021C299.179 222.683 299.328 223.342 299.44 224.021C299.693 225.368 299.893 226.747 300.078 228.125C300.795 233.651 300.962 239.225 300.971 243.415C300.976 244.422 300.971 245.348 300.969 246.179H305.24C305.152 245.296 305.052 244.294 304.933 243.191C304.478 238.946 303.714 233.266 302.393 227.702C302.057 226.311 301.705 224.928 301.302 223.578C301.114 222.902 300.89 222.238 300.69 221.581C300.471 220.926 300.257 220.281 300.031 219.652C299.571 218.395 299.107 217.188 298.605 216.069C298.481 215.788 298.36 215.512 298.24 215.241C298.112 214.971 297.986 214.707 297.86 214.448C297.617 213.926 297.36 213.431 297.11 212.962C296.983 212.726 296.867 212.493 296.743 212.272C296.617 212.05 296.491 211.834 296.369 211.624C296.129 211.203 295.898 210.805 295.66 210.443C295.424 210.079 295.219 209.731 295.005 209.427C294.791 209.119 294.595 208.839 294.417 208.586C294.067 208.077 293.748 207.705 293.553 207.441C293.35 207.179 293.243 207.041 293.243 207.041C293.243 207.041 293.336 207.191 293.51 207.472C293.676 207.758 293.955 208.155 294.248 208.696V208.693Z" fill="#ABBD43"/>
<path d="M297.571 135.577C297.912 136.12 298.317 136.734 298.707 137.462C299.112 138.181 299.557 138.977 300.045 139.843C300.164 140.06 300.295 140.279 300.414 140.507C300.528 140.738 300.647 140.974 300.767 141.215C301.007 141.693 301.255 142.191 301.509 142.705C301.764 143.219 302.035 143.745 302.297 144.295C302.543 144.852 302.797 145.426 303.057 146.014C303.316 146.602 303.583 147.205 303.854 147.821C304.112 148.445 304.352 149.093 304.609 149.75C304.864 150.407 305.123 151.076 305.388 151.759C305.623 152.454 305.861 153.162 306.107 153.881C306.342 154.602 306.614 155.326 306.83 156.078C307.049 156.83 307.273 157.595 307.499 158.368C307.611 158.754 307.726 159.144 307.84 159.537C307.938 159.935 308.038 160.333 308.137 160.735C308.337 161.537 308.54 162.349 308.742 163.17C308.935 163.994 309.097 164.835 309.278 165.68C309.452 166.525 309.645 167.375 309.78 168.244C309.93 169.111 310.08 169.982 310.23 170.863C310.38 171.741 310.483 172.637 310.611 173.532C310.883 175.32 311.037 177.146 311.242 178.977C311.554 182.653 311.785 186.393 311.837 190.143C311.89 193.89 311.866 197.64 311.704 201.328C311.556 205.018 311.335 208.646 311.047 212.156C310.773 215.665 310.445 219.058 310.116 222.276C309.776 225.498 309.452 228.543 309.154 231.355C308.852 234.171 308.578 236.759 308.357 239.059C308.13 241.361 307.959 243.368 307.833 245.042C307.804 245.444 307.778 245.825 307.752 246.187H312.294C312.304 245.899 312.313 245.599 312.323 245.285C312.382 243.663 312.475 241.671 312.609 239.387C312.74 237.104 312.911 234.521 313.101 231.7C313.29 228.874 313.494 225.81 313.711 222.569C313.916 219.324 314.111 215.898 314.251 212.344C314.404 208.794 314.485 205.116 314.49 201.38C314.509 197.645 314.385 193.842 314.185 190.05C313.982 186.255 313.601 182.472 313.14 178.76C312.861 176.91 312.632 175.07 312.285 173.267C312.118 172.365 311.98 171.465 311.792 170.582C311.604 169.696 311.418 168.82 311.233 167.949C311.061 167.075 310.833 166.223 310.623 165.373C310.406 164.525 310.211 163.682 309.983 162.856C309.745 162.035 309.506 161.221 309.273 160.416C309.156 160.013 309.04 159.616 308.926 159.218C308.795 158.825 308.664 158.437 308.535 158.049C308.276 157.276 308.021 156.514 307.771 155.764C307.523 155.011 307.221 154.292 306.954 153.573C306.68 152.857 306.411 152.154 306.147 151.464C305.854 150.785 305.564 150.119 305.283 149.466C304.997 148.817 304.731 148.174 304.447 147.557C304.15 146.948 303.857 146.35 303.573 145.769C303.29 145.188 303.012 144.622 302.743 144.072C302.459 143.529 302.164 143.012 301.89 142.505C301.614 142 301.345 141.512 301.086 141.038C300.957 140.803 300.828 140.572 300.705 140.343C300.576 140.117 300.438 139.905 300.309 139.691C299.788 138.841 299.309 138.062 298.876 137.358C298.457 136.646 298.026 136.046 297.664 135.515C297.302 134.986 296.993 134.536 296.743 134.17C296.243 133.441 295.976 133.051 295.976 133.051C295.976 133.051 296.229 133.451 296.7 134.198C296.936 134.572 297.226 135.034 297.567 135.577H297.571Z" fill="#ABBD43"/>
</svg>
